<?xml version="1.0" encoding="UTF-8" standalone="no"?>
<svg
   xmlns:dc="http://purl.org/dc/elements/1.1/"
   xmlns:cc="http://creativecommons.org/ns#"
   xmlns:rdf="http://www.w3.org/1999/02/22-rdf-syntax-ns#"
   xmlns:svg="http://www.w3.org/2000/svg"
   xmlns="http://www.w3.org/2000/svg"
   xmlns:sodipodi="http://sodipodi.sourceforge.net/DTD/sodipodi-0.dtd"
   xmlns:inkscape="http://www.inkscape.org/namespaces/inkscape"
   sodipodi:docname="myservices.svg"
   inkscape:version="1.0 (4035a4fb49, 2020-05-01)"
   id="svg8"
   version="1.1"
   viewBox="0 0 300 150"
   height="150mm"
   width="300mm">
  <defs
     id="defs2">
    <clipPath
       clipPathUnits="userSpaceOnUse"
       id="clipPath26">
      <path
         d="M 0,595.28 H 841.89 V 0 H 0 Z"
         id="path24" />
    </clipPath>
    <clipPath
       clipPathUnits="userSpaceOnUse"
       id="clipPath104">
      <path
         d="m 165.281,365.161 c -0.912,-0.148 -1.433,-0.508 -1.865,-0.809 v 0 c -1.558,-1.26 -2.153,-2.418 -2.897,-3.592 v 0 c -0.685,-1.169 -1.272,-2.336 -1.823,-3.508 v 0 c -2.173,-4.685 -3.893,-9.425 -5.563,-14.19 v 0 c -3.243,-9.552 -6.074,-19.194 -8.824,-28.857 v 0 c 3.631,9.363 7.365,18.693 11.428,27.835 v 0 c 2.019,4.563 4.107,9.122 6.511,13.371 v 0 c 0.603,1.055 1.232,2.085 1.895,3.032 v 0 c 0.302,0.439 0.651,0.893 0.985,1.275 v 0 c 0.154,-0.802 0.243,-1.761 0.294,-2.71 v 0 c 0.182,-4.717 -0.159,-9.718 -0.546,-14.65 v 0 c -0.406,-4.951 -0.926,-9.918 -1.475,-14.888 v 0 c -1.082,-9.947 -2.402,-19.897 -3.385,-29.95 v 0 c -0.495,-5.033 -0.964,-10.071 -1.22,-15.256 v 0 c -0.111,-2.616 -0.211,-5.196 -0.004,-8.153 v 0 c 0.061,-0.753 0.141,-1.533 0.316,-2.448 v 0 c 0.095,-0.467 0.21,-0.971 0.413,-1.578 v 0 c 0.238,-0.618 0.439,-1.332 1.367,-2.499 v 0 c 0.452,-0.545 1.243,-1.306 2.441,-1.803 v 0 c 1.21,-0.559 3.071,-0.565 4.167,-0.143 v 0 c 1.148,0.39 1.807,0.913 2.234,1.272 v 0 c 0.469,0.401 0.732,0.706 0.981,0.997 v 0 c 0.894,1.106 1.243,1.803 1.648,2.511 v 0 c 1.417,2.68 2.339,4.886 3.406,7.168 v 0 c 1.033,2.251 2.072,4.444 3.161,6.597 v 0 c 2.189,4.297 4.516,8.451 7.134,12.379 v 0 c 1.307,1.963 2.677,3.874 4.121,5.715 v 0 c 1.523,1.946 3.054,3.897 4.575,5.722 v 0 c 1.524,1.824 3.064,3.578 4.613,5.09 v 0 c 1.244,1.228 2.55,2.305 3.622,2.972 v 0 c 0.08,-0.427 0.152,-0.892 0.214,-1.371 v 0 c 0.496,-4.098 0.395,-9.011 0.186,-13.824 v 0 c -0.435,-9.756 -1.471,-19.68 -1.94,-30.066 v 0 c -0.107,-2.62 -0.174,-5.267 -0.087,-8.121 v 0 c 0.051,-1.434 0.136,-2.911 0.375,-4.602 v 0 c 0.126,-0.855 0.283,-1.755 0.582,-2.834 v 0 c 0.356,-1.113 0.646,-2.304 1.943,-4.194 v 0 c 0.661,-0.91 1.664,-2.069 3.365,-3.011 v 0 c 1.68,-0.964 3.958,-1.337 5.613,-1.126 v 0 c 1.697,0.183 2.865,0.679 3.718,1.101 v 0 c 0.898,0.45 1.512,0.875 2.061,1.281 v 0 c 2.066,1.604 3.068,2.872 4.119,4.124 v 0 c 1.971,2.467 3.449,4.758 4.884,7.062 v 0 l 3.992,6.628 c 1.306,2.168 2.588,4.388 3.86,6.626 v 0 c 2.555,4.485 4.914,8.877 7.291,13.292 v 0 l 7.07,13.251 c 2.074,3.858 4.137,7.715 6.265,11.241 v 0 c 0.886,-1.88 1.689,-3.879 2.362,-5.947 v 0 c 1.441,-4.744 2.528,-9.699 4.038,-14.67 v 0 c 0.744,-2.49 1.552,-4.995 2.591,-7.516 v 0 c 1.076,-2.511 2.176,-5.108 4.539,-7.59 v 0 c 1.155,-1.206 2.998,-2.415 5.142,-2.588 v 0 c 2.148,-0.181 3.925,0.618 5.244,1.456 v 0 c 2.629,1.774 4.283,3.91 5.852,6.041 v 0 c 3.051,4.306 5.336,8.854 7.498,13.439 v 0 c 2.128,4.599 4.066,9.25 5.98,13.901 v 0 c 1.886,4.664 3.646,9.37 5.437,14.059 v 0 c -2.027,-4.592 -4.211,-9.116 -6.479,-13.586 v 0 c -2.25,-4.477 -4.636,-8.887 -7.26,-13.127 v 0 c -2.605,-4.232 -5.363,-8.415 -8.556,-11.979 v 0 c -1.572,-1.746 -3.348,-3.415 -5.063,-4.198 v 0 c -0.843,-0.386 -1.562,-0.463 -1.93,-0.312 v 0 c -0.368,0.137 -0.751,0.411 -1.237,1.083 v 0 c -0.96,1.316 -1.737,3.508 -2.291,5.709 v 0 c -0.554,2.238 -0.953,4.612 -1.296,7.016 v 0 c -0.651,4.832 -1.2,9.78 -1.652,14.89 v 0 l -0.466,7.967 c -0.23,2.8 -0.382,5.643 -1.757,9.229 v 0 c -0.796,1.773 -1.67,4.031 -4.945,6.39 v 0 c -0.842,0.557 -1.834,1.069 -2.95,1.424 v 0 c -0.964,0.325 -2.61,0.691 -4.535,0.463 v 0 c -1.814,-0.238 -3.173,-0.847 -4.095,-1.352 v 0 c -0.424,-0.239 -0.861,-0.507 -1.246,-0.769 v 0 c -0.292,-0.212 -0.582,-0.429 -0.862,-0.658 v 0 c -2.051,-1.736 -2.92,-2.96 -3.948,-4.255 v 0 c -0.92,-1.234 -1.735,-2.421 -2.504,-3.589 v 0 c -2.989,-4.64 -5.536,-9.12 -7.92,-13.688 v 0 c -2.344,-4.457 -4.689,-8.896 -6.948,-13.389 v 0 l -6.737,-13.343 -3.341,-6.411 c 0.227,8.069 0.701,16.379 0.797,24.853 v 0 c 0.018,5.207 0.044,10.373 -0.795,16.231 v 0 c -0.24,1.49 -0.53,3.025 -1.104,4.789 v 0 c -0.294,0.885 -0.655,1.832 -1.227,2.898 v 0 c -0.57,1.044 -1.391,2.308 -2.838,3.535 v 0 c -0.693,0.598 -1.85,1.257 -2.34,1.441 v 0 c -0.619,0.295 -1.296,0.521 -1.984,0.712 v 0 c -1.372,0.348 -2.838,0.49 -4.139,0.366 v 0 c -2.67,-0.213 -4.678,-1.119 -6.339,-2.016 v 0 c -3.248,-1.874 -5.367,-3.983 -7.357,-6.048 v 0 c -1.957,-2.081 -3.641,-4.18 -5.252,-6.27 v 0 c -1.608,-2.097 -3.093,-4.158 -4.582,-6.223 v 0 c -1.566,-2.174 -3.034,-4.405 -4.417,-6.675 v 0 c -2.456,-4.035 -4.627,-8.204 -6.545,-12.435 v 0 c 0.067,2.02 0.141,4.044 0.231,6.073 v 0 l 1.422,30.063 c 0.209,5.034 0.391,10.078 0.46,15.151 v 0 c 0.032,5.085 0.098,10.142 -0.555,15.432 v 0 c -0.191,1.342 -0.386,2.669 -0.904,4.195 v 0 c -0.313,0.758 -0.519,1.621 -1.71,2.704 v 0 c -0.486,0.452 -1.416,0.811 -2.231,0.811 v 0 c -0.165,0 -0.325,-0.015 -0.477,-0.046 m 0.777,-4.578 c 0.063,0.041 0.098,0.022 -0.028,-0.021 v 0 c 0.008,0.005 0.02,0.017 0.028,0.021 m 38.396,-43.867 c -0.023,10e-4 -0.082,-0.007 -0.15,-0.011 v 0 c 0.16,0.044 0.231,0.044 0.15,0.011 M 169.492,273.85 c 0.061,-0.131 0.058,-0.178 0.072,-0.194 v 0 c -0.001,-0.001 -0.001,-0.001 -0.001,-0.001 v 0 c -0.006,0 -0.039,0.084 -0.071,0.195 m 48.268,-14.101 c -0.01,0.024 -0.025,0.086 -0.037,0.125 v 0 c 0.05,-0.113 0.053,-0.152 0.047,-0.152 v 0 c -0.003,0 -0.008,0.011 -0.01,0.027"
         id="path102" />
    </clipPath>
    <linearGradient
       x1="0"
       y1="0"
       x2="1"
       y2="0"
       gradientUnits="userSpaceOnUse"
       gradientTransform="matrix(-309.99454,-178.97543,-178.97543,309.99454,451.90988,452.30713)"
       spreadMethod="pad"
       id="linearGradient126">
      <stop
         style="stop-opacity:1;stop-color:#0080e3"
         offset="0"
         id="stop110" />
      <stop
         style="stop-opacity:1;stop-color:#0080e3"
         offset="0.02839059"
         id="stop112" />
      <stop
         style="stop-opacity:1;stop-color:#00fade"
         offset="0.507395"
         id="stop114" />
      <stop
         style="stop-opacity:1;stop-color:#00fade"
         offset="0.51941384"
         id="stop116" />
      <stop
         style="stop-opacity:1;stop-color:#00a8ff"
         offset="0.722195"
         id="stop118" />
      <stop
         style="stop-opacity:1;stop-color:#0f1887"
         offset="0.91344"
         id="stop120" />
      <stop
         style="stop-opacity:1;stop-color:#0f1887"
         offset="0.91828335"
         id="stop122" />
      <stop
         style="stop-opacity:1;stop-color:#0f1887"
         offset="1"
         id="stop124" />
    </linearGradient>
    <clipPath
       clipPathUnits="userSpaceOnUse"
       id="clipPath136">
      <path
         d="m 402.853,325.062 c -15.261,-7.771 -30.254,-16.102 -44.875,-25.064 v 0 C 348.78,294.385 339.809,288.4 331.004,282.184 v 0 c 3.329,7.988 6.352,16.114 9.029,24.393 v 0 c 2.617,8.305 4.885,16.693 6.777,25.212 v 0 c 0.938,4.27 1.793,8.548 2.446,12.994 v 0 c 0.162,1.115 0.308,2.244 0.425,3.42 v 0 c 0.11,1.205 0.226,2.334 0.182,3.955 v 0 c -0.023,0.438 -0.04,0.889 -0.177,1.634 v 0 c -0.108,0.436 -0.131,0.812 -0.619,1.829 v 0 c -0.189,0.38 -0.676,1.258 -1.697,2.046 v 0 c -0.972,1.046 -3.897,1.437 -4.952,0.974 v 0 c -1.264,-0.37 -1.698,-0.766 -2.073,-1.017 v 0 c -0.403,-0.305 -0.551,-0.463 -0.762,-0.667 v 0 c -0.331,-0.337 -0.543,-0.602 -0.708,-0.815 v 0 c -0.334,-0.436 -0.557,-0.777 -0.754,-1.088 v 0 c -0.767,-1.232 -1.276,-2.232 -1.806,-3.266 v 0 c -3.956,-8.044 -7.188,-15.811 -10.676,-23.643 v 0 c -2.682,-6.06 -5.368,-12.087 -8.141,-18.025 v 0 l 0.932,4.033 c 0.965,4.192 1.912,8.419 2.74,12.74 v 0 c 0.803,4.352 1.583,8.682 1.746,13.627 v 0 c 0.027,1.251 0.008,2.555 -0.171,4.033 v 0 c -0.245,1.488 -0.4,3.155 -1.897,5.506 v 0 c -0.763,1.154 -2.196,2.502 -3.978,3.111 v 0 c -1.764,0.63 -3.385,0.526 -4.531,0.306 v 0 c -0.607,-0.112 -1.103,-0.265 -1.577,-0.427 v 0 c -0.439,-0.159 -0.742,-0.304 -1.118,-0.463 v 0 c -0.742,-0.302 -1.347,-0.675 -2.003,-1.033 v 0 c -4.908,-3.025 -7.752,-6.931 -10.276,-10.803 v 0 c -2.445,-3.917 -4.312,-7.997 -5.891,-12.134 v 0 c -1.585,-4.133 -2.942,-8.294 -4.172,-12.467 v 0 c -2.425,-8.116 -4.772,-16.108 -7.339,-24.031 v 0 c 2.596,7.91 6.129,15.525 10.498,22.618 v 0 c 4.475,7.258 9.63,14.132 14.875,20.096 v 0 c 2.059,2.295 4.264,4.472 6.313,5.975 v 0 c 0,-0.009 10e-4,-0.016 10e-4,-0.024 v 0 c -0.107,-3.606 -0.79,-7.733 -1.553,-11.774 v 0 c -0.781,-4.072 -1.702,-8.186 -2.656,-12.322 v 0 l -2.898,-12.527 c -0.923,-4.285 -1.905,-8.406 -2.394,-13.371 v 0 c -0.052,-0.642 -0.094,-1.306 -0.095,-2.057 v 0 c 0.009,-0.767 0.013,-1.553 0.243,-2.737 v 0 c 0.135,-0.604 0.292,-1.31 0.836,-2.335 v 0 c 0.258,-0.481 0.696,-1.129 1.323,-1.722 v 0 c 0.663,-0.624 1.585,-1.202 2.578,-1.488 v 0 c 1.845,-0.541 3.336,-0.204 4.296,0.13 v 0 c 0.985,0.359 1.596,0.758 2.09,1.105 v 0 c 1.86,1.405 2.581,2.466 3.43,3.529 v 0 c 0.786,1.051 1.451,2.058 2.075,3.057 v 0 c 2.458,3.981 4.416,7.874 6.349,11.802 v 0 c 1.591,3.276 3.114,6.556 4.61,9.837 v 0 c -0.016,-0.052 -0.03,-0.104 -0.047,-0.156 v 0 c -4.096,-13.391 -9.175,-26.573 -15.019,-39.393 v 0 C 301.396,260.17 288.387,249.437 275.809,238.248 v 0 c -6.483,-5.611 -12.733,-11.464 -19.102,-17.197 v 0 c -6.404,-5.932 -12.223,-12.242 -17.961,-18.685 v 0 c -5.697,-6.471 -11.205,-13.12 -16.281,-20.207 v 0 c -2.526,-3.556 -4.955,-7.207 -7.088,-11.174 v 0 c -1.058,-1.991 -2.049,-4.056 -2.837,-6.342 v 0 c -0.708,-2.307 -1.528,-4.797 -0.819,-8.199 v 0 c 0.342,-1.679 1.54,-3.557 3.096,-4.612 v 0 c 1.532,-1.086 3.147,-1.496 4.641,-1.666 v 0 c 2.998,-0.283 5.51,0.348 7.805,1.093 v 0 c 4.567,1.574 8.48,3.853 12.211,6.301 v 0 c 7.418,4.948 14.023,10.707 20.294,16.753 v 0 c 12.48,12.158 23.499,25.608 33.52,39.729 v 0 c 10.012,14.132 18.947,29.017 26.793,44.471 v 0 c 2.773,5.486 5.405,11.039 7.897,16.657 v 0 c 23.991,17.853 49.798,33.185 76.342,47.049 v 0 c 30.31,15.684 61.615,29.465 93.69,41.371 v 0 l -3.043,6.908 c -30.454,-15.73 -61.571,-29.931 -92.114,-45.436 M 220.175,157.169 c -0.617,0.042 -1.142,0.213 -1.357,0.377 v 0 c -0.2,0.163 -0.276,0.168 -0.394,0.582 v 0 c -0.261,0.81 -0.012,2.662 0.559,4.382 v 0 c 0.568,1.77 1.384,3.592 2.298,5.389 v 0 c 1.844,3.602 4.083,7.133 6.438,10.587 v 0 c 4.745,6.908 10.022,13.548 15.495,20.012 v 0 c 5.499,6.427 11.17,12.81 17.198,18.613 v 0 c 6.219,5.829 12.324,11.794 18.698,17.45 v 0 c 10.25,9.393 20.795,18.445 31.613,27.155 v 0 c -7.23,-14.747 -15.472,-29.021 -24.736,-42.599 v 0 c -9.504,-13.924 -20.042,-27.191 -31.822,-39.136 v 0 c -5.899,-5.935 -12.136,-11.574 -18.854,-16.256 v 0 c -3.347,-2.315 -6.873,-4.401 -10.375,-5.681 v 0 c -1.517,-0.556 -3.066,-0.895 -4.281,-0.895 v 0 c -0.167,0 -0.327,0.007 -0.48,0.02 m 59.585,134.326 c 0.068,0.207 0.136,0.415 0.203,0.623 v 0 c -0.068,-0.208 -0.136,-0.415 -0.203,-0.623"
         id="path134" />
    </clipPath>
    <linearGradient
       x1="0"
       y1="0"
       x2="1"
       y2="0"
       gradientUnits="userSpaceOnUse"
       gradientTransform="matrix(-311.10034,-179.61386,-179.61386,311.10034,492.78967,381.04425)"
       spreadMethod="pad"
       id="linearGradient158">
      <stop
         style="stop-opacity:1;stop-color:#0080e3"
         offset="0"
         id="stop142" />
      <stop
         style="stop-opacity:1;stop-color:#0080e3"
         offset="0.02839059"
         id="stop144" />
      <stop
         style="stop-opacity:1;stop-color:#00fade"
         offset="0.507395"
         id="stop146" />
      <stop
         style="stop-opacity:1;stop-color:#00fade"
         offset="0.51941384"
         id="stop148" />
      <stop
         style="stop-opacity:1;stop-color:#00a8ff"
         offset="0.722195"
         id="stop150" />
      <stop
         style="stop-opacity:1;stop-color:#0f1887"
         offset="0.91344"
         id="stop152" />
      <stop
         style="stop-opacity:1;stop-color:#0f1887"
         offset="0.91828335"
         id="stop154" />
      <stop
         style="stop-opacity:1;stop-color:#0f1887"
         offset="1"
         id="stop156" />
    </linearGradient>
    <clipPath
       clipPathUnits="userSpaceOnUse"
       id="clipPath168">
      <path
         d="m 499.698,394.338 c -0.423,-0.506 -0.772,-1.068 -1.188,-1.58 v 0 c -0.212,-0.263 -0.381,-0.553 -0.582,-0.822 v 0 c -0.062,-0.114 -0.137,-0.218 -0.212,-0.322 v 0 c -0.021,-0.031 -0.041,-0.062 -0.059,-0.095 v 0 c -0.09,-0.145 -0.189,-0.286 -0.276,-0.434 v 0 c -0.255,-0.31 -0.28,-0.614 0.019,-0.916 v 0 c 0.065,-0.065 0.102,-0.155 0.156,-0.23 v 0 c 0.693,-0.831 1.209,-1.78 1.768,-2.7 v 0 c 0.297,-0.468 0.541,-0.968 0.789,-1.464 v 0 c 0.259,-0.546 0.48,-1.111 0.723,-1.663 v 0 c 0.244,-0.55 0.488,-1.112 0.584,-1.717 v 0 c 0.087,-0.414 0.259,-0.8 0.404,-1.194 v 0 c 0.018,-0.045 0.034,-0.09 0.052,-0.135 v 0 c 0.186,-0.565 0.452,-1.102 0.578,-1.689 v 0 c -0.015,-0.041 -0.036,-0.077 -0.061,-0.113 v 0 c -0.945,-0.407 -1.916,-0.744 -2.894,-1.067 v 0 c -0.06,0.003 -0.12,0.01 -0.181,0.019 v 0 c -0.164,0.027 -0.31,0.1 -0.457,0.172 v 0 c -0.083,0.039 -0.165,0.079 -0.246,0.119 v 0 c -0.364,0.176 -0.736,0.336 -1.125,0.532 v 0 c 0.39,0.167 0.423,0.494 0.476,0.809 v 0 c -0.057,0.145 -0.192,0.178 -0.321,0.22 v 0 c -0.652,0.218 -1.309,0.428 -1.963,0.646 v 0 c -0.501,0.134 -0.988,0.316 -1.477,0.489 v 0 c -0.303,0.133 -0.635,0.192 -0.922,0.362 v 0 c -0.365,0.138 -0.731,0.272 -1.096,0.411 v 0 c -0.434,0.17 -0.883,0.296 -1.326,0.444 v 0 c -0.21,0.051 -0.414,0.129 -0.629,0.157 v 0 c -0.649,0.114 -1.096,-0.244 -1.525,-0.649 v 0 c -0.161,-0.204 -0.371,-0.36 -0.534,-0.562 v 0 c -0.189,-0.37 -0.558,-0.634 -0.628,-1.074 v 0 c -0.136,-0.294 -0.028,-0.573 0.05,-0.855 v 0 c 0.244,-0.497 0.509,-0.984 0.854,-1.422 v 0 c 0.034,-0.073 0.068,-0.145 0.103,-0.218 v 0 c 0.143,-0.493 0.476,-0.888 0.697,-1.341 v 0 c 0.196,-0.366 0.413,-0.72 0.611,-1.085 v 0 c 0.402,-0.612 0.815,-1.214 1.527,-1.512 v 0 c 0.079,-0.023 0.158,-0.04 0.237,-0.058 v 0 c 0.619,-0.162 1.253,-0.162 1.886,-0.162 v 0 c 0.265,0.009 0.531,-0.011 0.796,-0.016 v 0 c 0.266,-0.004 0.43,-0.106 0.455,-0.385 v 0 c 0.003,-0.011 0.008,-0.022 0.011,-0.032 v 0 c 1.159,-3.15 1.619,-4.714 2.916,-8.261 v 0 c 0.088,-0.237 0.011,-0.513 -0.201,-0.649 v 0 c -0.727,-0.467 -2.308,-1.501 -2.33,-2.054 v 0 c -0.006,-0.105 -0.044,-0.456 0.063,-0.865 v 0 c 0.135,-0.521 0.055,-1.083 0.309,-1.58 v 0 c 0.024,-0.105 0.049,-0.209 0.069,-0.315 v 0 c 0.214,-1.168 0.219,-2.372 0.63,-3.504 v 0 l 0.269,-0.221 c 0.361,-0.289 0.806,-0.339 1.235,-0.43 v 0 c 0.214,-0.047 0.423,-0.105 0.639,-0.139 v 0 c 0.589,-0.116 1.145,-0.082 1.62,0.344 v 0 c 0.211,0.26 0.414,0.525 0.56,0.829 v 0 c 0.148,0.361 0.364,0.684 0.576,1.009 v 0 c 0.243,0.423 0.499,0.838 0.756,1.253 v 0 c 0.023,0.03 0.043,0.06 0.063,0.093 v 0 c 0.085,0.163 0.198,0.309 0.296,0.465 v 0 c 0.046,0.083 0.093,0.166 0.143,0.246 v 0 c 0.582,0.917 1.142,1.846 1.706,2.774 v 0 c 0.125,0.207 0.334,0.428 0.075,0.687 v 0 c -0.254,0.161 -0.536,0.122 -0.821,0.086 v 0 c 0.228,0.367 0.363,0.747 0.545,1.105 v 0 c 0.082,0.189 0.174,0.373 0.256,0.561 v 0 c 0.037,0.112 0.08,0.219 0.173,0.298 v 0 c 0.873,0.362 1.772,0.656 2.657,0.988 v 0 c 0.079,0.028 0.158,0.038 0.239,0.014 v 0 c 0.095,-0.032 0.123,-0.116 0.149,-0.2 v 0 c 0.176,-0.484 0.346,-0.972 0.533,-1.452 v 0 c 0.177,-0.529 0.374,-1.052 0.573,-1.573 v 0 c 0.052,-0.167 0.112,-0.333 0.18,-0.495 v 0 c 0.128,-0.322 0.243,-0.65 0.359,-0.978 v 0 c 0.189,-0.752 0.47,-1.475 0.682,-2.22 v 0 c 0.038,-0.293 0.188,-0.557 0.217,-0.852 v 0 c 0.006,-0.043 0.015,-0.086 0.027,-0.128 v 0 c 0.041,-0.139 0.099,-0.276 0.067,-0.425 v 0 c -0.008,-0.302 0.069,-0.59 0.139,-0.879 v 0 c 0.047,-0.134 0.101,-0.267 0.102,-0.413 v 0 c 0.018,-0.14 0.039,-0.281 0.047,-0.422 v 0 c 0.046,-0.423 0.046,-0.848 0.051,-1.272 v 0 c -0.028,-0.545 0.329,-0.756 0.773,-0.891 v 0 c 0.223,-0.054 0.45,-0.082 0.674,-0.134 v 0 c 0.404,-0.086 0.798,-0.205 1.188,-0.34 v 0 c 0.595,-0.181 1.205,-0.291 1.816,-0.392 v 0 c 0.041,-0.005 0.083,-0.006 0.124,-0.002 v 0 c 0.545,-0.014 1.036,0.147 1.48,0.462 v 0 c 0.064,0.054 0.118,0.116 0.162,0.188 v 0 c 0.306,0.624 0.586,1.26 0.884,1.887 v 0 c 0.038,0.085 0.079,0.168 0.118,0.253 v 0 c 0.287,0.61 0.568,1.223 0.855,1.832 v 0 c 0.038,0.086 0.079,0.17 0.118,0.254 v 0 c 0.286,0.611 0.567,1.224 0.854,1.834 v 0 c 0.039,0.086 0.079,0.17 0.119,0.253 v 0 c 0.286,0.611 0.567,1.225 0.854,1.835 v 0 c 0.038,0.085 0.078,0.169 0.118,0.253 v 0 c 0.286,0.611 0.568,1.224 0.855,1.835 v 0 c 0.038,0.086 0.079,0.17 0.119,0.254 v 0 c 0.338,0.608 0.506,1.291 0.843,1.899 v 0 c 0.028,0.049 0.053,0.1 0.072,0.155 v 0 c 0.296,0.655 0.582,1.316 0.897,1.961 v 0 c 0.028,0.053 0.054,0.106 0.079,0.159 v 0 c 0.183,0.627 0.582,1.016 1.238,1.117 v 0 c 0.419,0.157 0.852,0.278 1.25,0.488 v 0 c 0.023,0.015 0.045,0.031 0.066,0.046 v 0 c 0.204,0.139 0.523,0.224 0.407,0.558 v 0 c -0.118,0.341 -0.425,0.184 -0.667,0.176 v 0 c -0.334,-0.046 -0.632,-0.206 -0.951,-0.296 v 0 c -0.092,-0.027 -0.195,-0.17 -0.306,-0.02 v 0 c 0.262,0.661 0.504,1.332 0.842,1.962 v 0 c 0.028,0.054 0.058,0.108 0.081,0.164 v 0 c 0.133,0.371 0.374,0.619 0.742,0.797 v 0 c 0.486,0.235 0.997,0.398 1.498,0.588 v 0 c 0.105,0.041 0.209,0.089 0.304,0.152 v 0 c 0.551,0.273 1.123,0.504 1.654,0.819 v 0 c 0.447,0.231 0.844,0.537 1.246,0.835 v 0 c 0.311,0.268 0.647,0.511 0.905,0.837 v 0 c 0.186,0.201 0.346,0.429 0.577,0.586 v 0 c 1.03,0.433 2.089,0.788 3.134,1.184 v 0 c 0.618,0.322 1.265,0.582 1.881,0.907 v 0 c 0.036,0.039 0.059,0.084 0.067,0.136 v 0 c -0.144,0.707 -0.439,1.363 -0.673,2.039 v 0 c -0.152,0.438 -0.158,0.44 0.287,0.601 v 0 c 2.632,0.959 5.266,1.921 7.899,2.878 v 0 c 0.544,0.197 1.403,0.584 1.912,0.861 v 0 c 0.375,0.206 0.751,0.412 1.134,0.605 v 0 c 0.45,0.259 0.905,0.51 1.35,0.778 v 0 c 0.17,0.111 0.346,0.209 0.513,0.321 v 0 c 0.309,0.209 0.672,0.35 0.859,0.707 v 0 c 0.817,0.701 1.635,1.401 2.476,2.121 v 0 c -0.265,0.139 -0.496,0.143 -0.723,0.174 v 0 c -0.336,0.046 -0.671,0.015 -1.006,-0.016 v 0 c -0.24,-0.022 -0.481,-0.044 -0.722,-0.037 v 0 c -0.275,0.125 -0.551,0 -0.828,0 v 0 c -0.65,-0.062 -1.298,-0.134 -1.945,-0.218 v 0 c -0.467,-0.071 -0.932,-0.152 -1.396,-0.231 v 0 c -0.693,-0.13 -1.362,-0.349 -2.048,-0.5 v 0 c -0.121,-0.02 -0.241,-0.047 -0.355,-0.097 v 0 c -0.954,-0.307 -1.929,-0.56 -2.855,-0.955 v 0 c -0.114,-0.048 -0.234,-0.06 -0.354,-0.072 v 0 c -0.226,-0.037 -0.437,-0.12 -0.649,-0.204 v 0 c -0.501,-0.17 -0.999,-0.351 -1.492,-0.545 v 0 c -0.119,-0.043 -0.237,-0.09 -0.343,-0.162 v 0 c -0.108,-0.084 -0.232,-0.136 -0.359,-0.183 v 0 c -0.887,-0.323 -1.779,-0.638 -2.662,-0.974 v 0 c -0.312,-0.119 -0.481,-0.054 -0.575,0.268 v 0 c -0.08,0.272 -0.182,0.538 -0.29,0.799 v 0 c -0.169,0.41 -0.245,0.859 -0.51,1.229 v 0 c -0.288,0.143 -0.571,-0.004 -0.856,-0.014 v 0 c -0.566,-0.082 -1.098,-0.296 -1.647,-0.443 v 0 c -0.517,-0.219 -1.025,-0.461 -1.588,-0.543 v 0 c -0.51,-0.187 -1.037,-0.306 -1.579,-0.357 v 0 c -0.336,-0.05 -0.674,-0.059 -1.013,-0.059 v 0 c -0.256,0.027 -0.507,-0.027 -0.759,-0.051 v 0 c -0.495,-0.071 -0.989,-0.145 -1.486,-0.19 v 0 c -0.534,-0.115 -1.091,-0.099 -1.609,-0.295 v 0 c -0.504,-0.117 -0.994,-0.286 -1.497,-0.409 v 0 c -0.573,-0.262 -1.129,-0.263 -1.664,0.103 v 0 c -0.053,0.025 -0.106,0.05 -0.161,0.071 v 0 c -0.643,0.279 -1.269,0.593 -1.874,0.952 v 0 c -0.022,0.191 0.153,0.147 0.243,0.188 v 0 c 0.346,0.153 0.723,0.234 1.052,0.432 v 0 c 0.184,0.127 0.354,0.274 0.26,0.526 v 0 c -0.093,0.247 -0.32,0.194 -0.519,0.185 v 0 c -0.04,-0.002 -0.081,-0.005 -0.12,-0.008 v 0 c -0.113,-0.015 -0.222,-0.044 -0.329,-0.081 v 0 c -0.327,-0.125 -0.672,-0.214 -0.984,-0.37 v 0 c -0.569,-0.283 -1.107,-0.281 -1.641,0.072 v 0 c -0.094,0.04 -0.186,0.08 -0.279,0.121 v 0 c -0.623,0.284 -1.242,0.575 -1.862,0.863 v 0 c -0.086,0.039 -0.171,0.08 -0.255,0.119 v 0 c -0.612,0.287 -1.225,0.568 -1.835,0.855 v 0 c -0.085,0.038 -0.169,0.078 -0.254,0.118 v 0 c -0.61,0.286 -1.224,0.568 -1.834,0.854 v 0 c -0.084,0.039 -0.169,0.078 -0.253,0.119 v 0 c -0.61,0.286 -1.224,0.568 -1.834,0.854 v 0 c -0.085,0.038 -0.17,0.078 -0.254,0.118 v 0 c -0.61,0.287 -1.224,0.568 -1.834,0.855 v 0 c -0.084,0.038 -0.168,0.078 -0.254,0.118 v 0 c -0.61,0.287 -1.222,0.568 -1.832,0.855 v 0 c -0.087,0.038 -0.17,0.077 -0.255,0.118 v 0 c -0.634,0.283 -1.251,0.608 -1.898,0.862 v 0 c -0.079,0.016 -0.159,0.027 -0.24,0.029 v 0 c -0.031,10e-4 -0.061,10e-4 -0.091,10e-4 v 0 c -0.564,0 -1.056,-0.17 -1.423,-0.639"
         id="path166" />
    </clipPath>
    <linearGradient
       x1="0"
       y1="0"
       x2="1"
       y2="0"
       gradientUnits="userSpaceOnUse"
       gradientTransform="matrix(-259.84555,-23.224279,-23.224279,259.84555,595.72681,381.76068)"
       spreadMethod="pad"
       id="linearGradient190">
      <stop
         style="stop-opacity:1;stop-color:#0080e3"
         offset="0"
         id="stop174" />
      <stop
         style="stop-opacity:1;stop-color:#0080e3"
         offset="0.02839059"
         id="stop176" />
      <stop
         style="stop-opacity:1;stop-color:#00fade"
         offset="0.507395"
         id="stop178" />
      <stop
         style="stop-opacity:1;stop-color:#00fade"
         offset="0.51941384"
         id="stop180" />
      <stop
         style="stop-opacity:1;stop-color:#00a8ff"
         offset="0.722195"
         id="stop182" />
      <stop
         style="stop-opacity:1;stop-color:#0f1887"
         offset="0.91344"
         id="stop184" />
      <stop
         style="stop-opacity:1;stop-color:#0f1887"
         offset="0.91828335"
         id="stop186" />
      <stop
         style="stop-opacity:1;stop-color:#0f1887"
         offset="1"
         id="stop188" />
    </linearGradient>
    <clipPath
       clipPathUnits="userSpaceOnUse"
       id="clipPath200">
      <path
         d="M 0,595.28 H 841.89 V 0 H 0 Z"
         id="path198" />
    </clipPath>
  </defs>
  <sodipodi:namedview
     inkscape:window-maximized="0"
     inkscape:window-y="0"
     inkscape:window-x="26"
     inkscape:window-height="1040"
     inkscape:window-width="1274"
     height="200mm"
     showgrid="false"
     inkscape:document-rotation="0"
     inkscape:current-layer="layer1"
     inkscape:document-units="mm"
     inkscape:cy="560"
     inkscape:cx="400"
     inkscape:zoom="0.35"
     inkscape:pageshadow="2"
     inkscape:pageopacity="0.0"
     borderopacity="1.0"
     bordercolor="#666666"
     pagecolor="#ffffff"
     id="base" />
  <metadata
     id="metadata5">
    <rdf:RDF>
      <cc:Work
         rdf:about="">
        <dc:format>image/svg+xml</dc:format>
        <dc:type
           rdf:resource="http://purl.org/dc/dcmitype/StillImage" />
        <dc:title></dc:title>
      </cc:Work>
    </rdf:RDF>
  </metadata>
  <g
     id="layer1"
     inkscape:groupmode="layer"
     inkscape:label="Layer 1">
    <g
       transform="matrix(1.3315352,0,0,1.3315352,-41.105465,-26.825009)"
       id="g553">
      <g
         id="g20"
         transform="matrix(0.35277777,0,0,-0.35277777,-9.009445,172.62505)">
        <g
           clip-path="url(#clipPath26)"
           id="g22">
          <g
             transform="translate(216.688,263.1745)"
             id="g28">
            <path
               id="path30"
               style="fill:#233255;fill-opacity:1;fill-rule:nonzero;stroke:none"
               d="M 0,0 C -0.01,0.024 -0.025,0.086 -0.037,0.124 0.04,-0.047 0.006,-0.048 0,0 m -13.306,56.967 c -0.023,0.001 -0.083,-0.008 -0.151,-0.011 0.161,0.043 0.232,0.044 0.151,0.011 M -48.269,14.102 c 0.062,-0.132 0.059,-0.179 0.073,-0.195 -0.003,-0.012 -0.037,0.075 -0.073,0.195 m -3.46,86.711 c 0.008,0.005 0.019,0.017 0.027,0.021 0.063,0.04 0.098,0.022 -0.027,-0.021 M -4.518,-12.836 c 1.697,0.184 2.865,0.679 3.719,1.101 0.897,0.45 1.511,0.876 2.061,1.282 2.065,1.604 3.068,2.873 4.118,4.124 1.971,2.467 3.45,4.759 4.884,7.061 l 3.991,6.628 c 1.307,2.169 2.589,4.388 3.862,6.627 2.554,4.484 4.913,8.877 7.29,13.292 l 7.07,13.25 c 2.073,3.859 4.137,7.716 6.265,11.242 0.887,-1.88 1.689,-3.879 2.362,-5.947 1.441,-4.743 2.529,-9.699 4.037,-14.67 0.745,-2.49 1.553,-4.995 2.592,-7.516 1.076,-2.511 2.176,-5.108 4.539,-7.59 1.155,-1.207 2.999,-2.415 5.142,-2.588 2.148,-0.181 3.925,0.617 5.244,1.456 2.63,1.773 4.282,3.91 5.852,6.042 3.051,4.306 6.158,7.427 8.32,12.013 2.127,4.599 4.316,7.239 6.23,11.89 1.886,4.664 3.646,9.37 5.437,14.058 -2.027,-4.591 -4.21,-9.114 -6.478,-13.585 -2.25,-4.477 -13.696,-18.106 -16.889,-21.67 -1.572,-1.747 -3.349,-3.415 -5.063,-4.197 -0.843,-0.388 -1.562,-0.464 -1.93,-0.313 -0.368,0.137 -0.751,0.411 -1.236,1.082 -0.961,1.318 -1.737,3.509 -2.292,5.71 -0.553,2.239 -0.953,4.611 -1.296,7.017 -0.65,4.83 -1.2,9.779 -1.652,14.889 l -0.466,7.967 c -0.23,2.8 -0.382,5.643 -1.757,9.229 -0.796,1.773 -1.67,4.032 -4.945,6.391 -0.842,0.556 -1.833,1.067 -2.951,1.423 -0.963,0.325 -2.608,0.691 -4.534,0.463 C 35.194,73.087 33.835,72.478 32.913,71.973 32.49,71.734 32.052,71.466 31.667,71.204 31.375,70.992 31.085,70.775 30.805,70.545 28.754,68.81 27.885,67.586 26.857,66.291 25.937,65.058 25.122,63.87 24.353,62.702 21.364,58.061 18.816,53.582 16.434,49.014 14.089,44.557 11.744,40.119 9.485,35.625 L 2.748,22.282 -0.593,15.87 c 0.227,8.07 0.701,16.379 0.797,24.854 0.018,5.207 0.045,10.373 -0.794,16.23 -0.242,1.491 -0.531,3.025 -1.105,4.791 -0.294,0.884 -0.655,1.831 -1.226,2.896 -0.57,1.045 -1.392,2.309 -2.839,3.535 -0.694,0.599 -1.849,1.258 -2.339,1.441 -0.62,0.296 -1.297,0.521 -1.984,0.712 -1.373,0.348 -2.839,0.491 -4.14,0.366 -2.67,-0.213 -4.678,-1.118 -6.339,-2.015 -3.248,-1.874 -5.367,-3.983 -7.357,-6.049 -1.957,-2.08 -3.641,-4.179 -5.252,-6.27 -1.609,-2.097 -3.094,-4.157 -4.582,-6.222 -1.566,-2.174 -3.034,-4.405 -4.417,-6.676 -2.456,-4.034 -4.626,-8.202 -6.545,-12.435 0.067,2.021 0.141,4.045 0.231,6.073 l 1.421,30.064 c 0.211,5.034 0.393,10.078 0.46,15.15 0.033,5.086 0.099,10.143 -0.554,15.433 -0.191,1.341 -0.385,2.669 -0.904,4.194 -0.312,0.758 -0.519,1.622 -1.711,2.705 -0.583,0.544 -1.811,0.952 -2.707,0.765 -0.912,-0.148 -1.433,-0.508 -1.865,-0.809 -1.558,-1.26 -2.153,-2.417 -2.898,-3.592 -0.684,-1.169 -1.271,-2.336 -1.822,-3.508 -2.174,-4.685 -3.893,-9.426 -5.563,-14.19 -3.244,-9.552 -4.715,-21.614 -7.465,-31.276 3.631,9.362 6.006,21.112 10.069,30.254 2.019,4.563 4.108,9.122 6.511,13.371 0.603,1.055 1.233,2.085 1.895,3.032 0.303,0.439 0.652,0.892 0.985,1.275 0.154,-0.802 0.244,-1.761 0.294,-2.711 0.182,-4.716 -0.159,-9.716 -0.546,-14.649 -0.406,-4.951 -0.926,-9.917 -1.475,-14.888 -1.082,-9.948 -2.402,-19.897 -3.386,-29.95 -0.494,-5.034 -0.963,-10.071 -1.219,-15.256 -0.111,-2.617 -0.212,-5.197 -0.004,-8.154 0.061,-0.753 0.14,-1.531 0.316,-2.448 0.094,-0.467 0.211,-0.97 0.414,-1.577 0.238,-0.618 0.438,-1.332 1.366,-2.498 0.452,-0.546 1.244,-1.308 2.442,-1.804 1.209,-0.559 3.07,-0.565 4.166,-0.142 1.148,0.389 1.807,0.913 2.234,1.27 0.469,0.402 0.732,0.706 0.981,0.997 0.893,1.108 1.243,1.804 1.649,2.512 1.417,2.68 2.338,4.886 3.405,7.167 1.033,2.251 2.072,4.445 3.161,6.599 2.189,4.294 4.516,8.45 7.134,12.377 1.307,1.964 2.678,3.874 4.12,5.716 1.525,1.947 3.056,3.897 4.576,5.721 1.525,1.826 3.065,3.579 4.612,5.091 1.245,1.227 2.551,2.304 3.623,2.971 0.08,-0.425 0.152,-0.891 0.213,-1.37 0.498,-4.099 0.395,-9.01 0.186,-13.823 -0.434,-9.757 -1.469,-19.681 -1.939,-30.068 -0.107,-2.619 -0.173,-5.266 -0.087,-8.119 0.051,-1.435 0.136,-2.912 0.374,-4.603 0.127,-0.854 0.284,-1.755 0.584,-2.834 0.355,-1.112 0.645,-2.305 1.942,-4.193 0.66,-0.911 1.664,-2.07 3.365,-3.012 1.679,-0.965 3.959,-1.336 5.613,-1.127" />
          </g>
          <g
             transform="translate(284.9141,222.5427)"
             id="g32">
            <path
               id="path34"
               style="fill:#233255;fill-opacity:1;fill-rule:nonzero;stroke:none"
               d="m 0,0 c -9.504,-13.924 -20.041,-27.192 -31.821,-39.136 -5.899,-5.936 -12.136,-11.575 -18.854,-16.256 -3.346,-2.314 -6.873,-4.401 -10.375,-5.68 -1.725,-0.634 -3.491,-0.984 -4.762,-0.876 -0.616,0.042 -1.141,0.214 -1.356,0.376 -0.2,0.164 -0.276,0.17 -0.395,0.583 -0.26,0.81 -0.011,2.662 0.56,4.382 0.568,1.769 1.384,3.592 2.298,5.389 1.844,3.603 4.082,7.133 6.438,10.587 4.745,6.907 10.023,13.548 15.495,20.011 5.499,6.429 11.169,12.81 17.198,18.613 6.219,5.829 12.324,11.795 18.698,17.45 C 3.374,24.836 13.919,33.89 24.737,42.599 17.507,27.852 9.265,13.577 0,0 m 212.023,144.473 -3.043,6.908 C 178.528,135.651 147.41,121.45 116.867,105.945 101.606,98.174 86.613,89.843 71.991,80.881 62.793,75.267 53.824,69.283 45.018,63.066 c 3.329,7.989 6.353,16.115 9.028,24.393 2.618,8.306 4.886,16.694 6.778,25.213 0.938,4.269 1.793,8.547 2.446,12.994 0.161,1.115 0.308,2.244 0.426,3.42 0.11,1.205 0.225,2.334 0.181,3.955 -0.023,0.437 -0.04,0.889 -0.177,1.634 -0.108,0.436 -0.132,0.812 -0.619,1.83 -0.19,0.379 -0.676,1.257 -1.697,2.045 -0.972,1.045 -3.897,1.437 -4.951,0.974 -1.266,-0.371 -1.699,-0.766 -2.075,-1.017 -0.402,-0.306 -0.549,-0.463 -0.761,-0.667 -0.33,-0.338 -0.543,-0.603 -0.708,-0.816 -0.333,-0.436 -0.556,-0.776 -0.754,-1.088 -0.767,-1.231 -1.276,-2.231 -1.807,-3.266 -3.955,-8.044 -7.187,-15.811 -10.675,-23.642 -2.682,-6.061 -5.368,-12.087 -8.141,-18.026 l 0.932,4.034 c 0.965,4.192 1.912,8.419 2.74,12.741 0.803,4.351 1.583,8.681 1.746,13.625 0.027,1.252 0.009,2.556 -0.172,4.034 -0.244,1.488 -0.4,3.154 -1.896,5.506 -0.763,1.154 -2.196,2.501 -3.978,3.11 -1.763,0.631 -3.385,0.527 -4.532,0.307 -0.606,-0.112 -1.102,-0.265 -1.576,-0.427 -0.44,-0.159 -0.742,-0.305 -1.117,-0.464 -0.742,-0.301 -1.348,-0.675 -2.004,-1.031 C 16.747,129.41 13.903,125.504 11.379,121.633 8.934,117.716 7.067,113.636 5.488,109.499 3.903,105.366 2.546,101.205 1.315,97.033 -1.173,88.704 -2.391,77.436 -5.038,69.309 c 2.614,8.134 5.03,19.031 9.513,26.31 4.475,7.257 9.63,14.132 14.875,20.096 2.059,2.295 4.263,4.472 6.314,5.974 0,-0.008 0,-0.015 0,-0.023 -0.106,-3.607 -0.789,-7.733 -1.553,-11.774 -0.78,-4.072 -1.703,-8.186 -2.656,-12.322 L 18.557,85.043 C 17.635,80.758 16.652,76.638 16.163,71.672 16.11,71.03 16.07,70.366 16.068,69.615 c 0.01,-0.767 0.013,-1.552 0.244,-2.738 0.135,-0.603 0.291,-1.31 0.835,-2.334 0.257,-0.482 0.696,-1.13 1.323,-1.722 0.663,-0.624 1.585,-1.202 2.577,-1.488 1.847,-0.542 3.336,-0.203 4.297,0.131 0.986,0.357 1.596,0.757 2.09,1.103 1.86,1.407 2.581,2.467 3.43,3.531 0.786,1.049 1.451,2.057 2.075,3.056 2.458,3.98 4.416,7.874 6.35,11.802 1.59,3.276 3.114,6.556 4.608,9.837 -0.015,-0.052 -0.03,-0.105 -0.045,-0.156 C 39.756,77.246 34.676,64.064 28.832,51.243 15.41,41.053 2.4,30.32 -10.176,19.13 -16.66,13.52 -22.91,7.666 -29.279,1.933 c -6.405,-5.932 -12.223,-12.241 -17.961,-18.684 -5.697,-6.471 -11.205,-13.12 -16.281,-20.207 -2.526,-3.556 -4.956,-7.208 -7.087,-11.175 -1.059,-1.99 -2.05,-4.055 -2.838,-6.341 -0.707,-2.307 -1.528,-4.797 -0.82,-8.199 0.343,-1.679 1.541,-3.556 3.098,-4.612 1.532,-1.085 3.146,-1.497 4.64,-1.666 2.998,-0.282 5.509,0.347 7.804,1.094 4.568,1.573 8.481,3.852 12.212,6.3 7.417,4.949 14.023,10.705 20.294,16.752 12.48,12.159 23.499,25.61 33.52,39.729 10.011,14.133 18.947,29.017 26.793,44.472 2.773,5.485 5.405,11.039 7.897,16.657 23.991,17.853 49.798,33.185 76.341,47.049 30.311,15.684 61.617,29.464 93.69,41.371" />
          </g>
          <g
             transform="translate(441.668,222.6696)"
             id="g36">
            <path
               id="path38"
               style="fill:#1d1e1c;fill-opacity:1;fill-rule:nonzero;stroke:none"
               d="M 0,0 C 0,-1.661 -0.337,-2.776 -1.008,-3.346 -1.68,-3.915 -2.892,-4.2 -4.643,-4.2 h -11.158 c -1.894,0 -3.142,0.32 -3.743,0.961 -0.6,0.64 -0.899,2.005 -0.899,4.093 h 4.174 V -0.818 H -3.815 V 3.204 H -15.44 c -1.752,0 -2.957,0.29 -3.618,0.872 -0.66,0.581 -0.989,1.702 -0.989,3.363 v 1.957 c 0,1.662 0.329,2.778 0.989,3.347 0.661,0.57 1.866,0.855 3.618,0.855 H -0.432 V 10.465 H -16.269 V 6.656 h 11.626 c 1.751,0 2.963,-0.285 3.635,-0.853 C -0.337,5.233 0,4.117 0,2.456 Z" />
          </g>
          <g
             transform="translate(477.9453,218.4695)"
             id="g40">
            <path
               id="path42"
               style="fill:#1d1e1c;fill-opacity:1;fill-rule:nonzero;stroke:none"
               d="m 0,0 h -18.715 v 14.808 c 0,1.993 1.031,2.99 3.096,2.99 H -0.18 v -3.026 h -14.324 v -3.986 h 8.026 V 7.761 h -8.026 V 3.346 H 0 Z" />
          </g>
          <g
             transform="translate(510.4102,229.6111)"
             id="g44">
            <path
               id="path46"
               style="fill:#1d1e1c;fill-opacity:1;fill-rule:nonzero;stroke:none"
               d="M 0,0 V 2.136 C 0,3.062 -0.396,3.523 -1.188,3.523 H -11.266 V -1.424 H -1.188 C -0.396,-1.424 0,-0.95 0,0 m 4.499,-11.142 h -5.255 l -6.659,6.693 h -3.851 v -6.693 h -4.103 V 6.585 H 0 c 2.687,0 4.03,-1.032 4.03,-3.097 v -4.842 c 0,-1.494 -0.695,-2.527 -2.088,-3.095 h -4.318 z" />
          </g>
          <g
             transform="translate(547.7314,236.196)"
             id="g48">
            <path
               id="path50"
               style="fill:#1d1e1c;fill-opacity:1;fill-rule:nonzero;stroke:none"
               d="M 0,0 H 4.354 L -5.902,-17.727 H -9.934 L -20.083,0 h 4.535 l 7.63,-13.918 z" />
          </g>
          <path
             id="path52"
             style="fill:#1d1e1c;fill-opacity:1;fill-rule:nonzero;stroke:none"
             d="m 569.83,218.469 h -4.14 v 17.798 h 4.14 z" />
          <g
             transform="translate(607.3682,222.6696)"
             id="g54">
            <path
               id="path56"
               style="fill:#1d1e1c;fill-opacity:1;fill-rule:nonzero;stroke:none"
               d="M 0,0 C 0,-1.661 -0.318,-2.776 -0.953,-3.346 -1.59,-3.915 -2.76,-4.2 -4.463,-4.2 h -10.689 c -1.703,0 -2.873,0.285 -3.509,0.854 -0.636,0.57 -0.954,1.685 -0.954,3.346 v 9.361 c 0,1.638 0.318,2.747 0.954,3.328 0.636,0.582 1.806,0.873 3.509,0.873 H -4.463 C -1.584,13.538 -0.096,12.553 0,10.607 V 8.009 h -4.175 v 2.386 H -15.44 V -0.854 H -4.175 V 1.744 H 0 Z" />
          </g>
          <g
             transform="translate(644.3301,218.4695)"
             id="g58">
            <path
               id="path60"
               style="fill:#1d1e1c;fill-opacity:1;fill-rule:nonzero;stroke:none"
               d="m 0,0 h -18.715 v 14.808 c 0,1.993 1.031,2.99 3.096,2.99 H -0.18 v -3.026 h -14.324 v -3.986 h 8.026 V 7.761 h -8.026 V 3.346 H 0 Z" />
          </g>
          <g
             transform="translate(681.6162,222.6696)"
             id="g62">
            <path
               id="path64"
               style="fill:#1d1e1c;fill-opacity:1;fill-rule:nonzero;stroke:none"
               d="M 0,0 C 0,-1.661 -0.337,-2.776 -1.008,-3.346 -1.68,-3.915 -2.892,-4.2 -4.643,-4.2 h -11.158 c -1.894,0 -3.142,0.32 -3.743,0.961 -0.6,0.64 -0.899,2.005 -0.899,4.093 h 4.174 V -0.818 H -3.815 V 3.204 H -15.44 c -1.752,0 -2.957,0.29 -3.617,0.872 -0.661,0.581 -0.99,1.702 -0.99,3.363 v 1.957 c 0,1.662 0.329,2.778 0.99,3.347 0.66,0.57 1.865,0.855 3.617,0.855 H -0.432 V 10.465 H -16.269 V 6.656 h 11.626 c 1.751,0 2.963,-0.285 3.635,-0.853 C -0.337,5.233 0,4.117 0,2.456 Z" />
          </g>
          <g
             transform="translate(387.2378,239.5642)"
             id="g66">
            <path
               id="path68"
               style="fill:#000000;fill-opacity:1;fill-rule:nonzero;stroke:none"
               d="m 0,0 c -2.552,0 -4.704,-0.866 -6.458,-2.603 -1.754,-1.733 -2.629,-3.861 -2.629,-6.384 0,-2.523 0.875,-4.651 2.629,-6.386 1.754,-1.734 3.906,-2.601 6.458,-2.601 2.422,0 4.496,0.913 6.216,2.743 1.723,1.83 2.583,3.912 2.583,6.244 C 8.799,-2.995 5.865,0 0,0" />
          </g>
          <g
             transform="translate(366.4814,239.5642)"
             id="g70">
            <path
               id="path72"
               style="fill:#000000;fill-opacity:1;fill-rule:nonzero;stroke:none"
               d="m 0,0 c -5.931,0 -8.896,-2.995 -8.896,-8.987 0,-2.332 0.875,-4.414 2.63,-6.244 1.753,-1.83 3.841,-2.743 6.266,-2.743 2.549,0 4.702,0.867 6.456,2.601 1.752,1.735 2.631,3.863 2.631,6.386 0,2.523 -0.879,4.651 -2.631,6.384 C 4.702,-0.866 2.549,0 0,0" />
          </g>
          <g
             transform="translate(448.4531,316.4734)"
             id="g74">
            <path
               id="path76"
               style="fill:#000000;fill-opacity:1;fill-rule:nonzero;stroke:none"
               d="m 0,0 c 0,-2.333 0.875,-4.415 2.63,-6.244 1.753,-1.83 3.841,-2.743 6.266,-2.743 2.55,0 4.702,0.867 6.457,2.602 1.752,1.734 2.629,3.862 2.629,6.385 0,2.522 -0.877,4.65 -2.629,6.386 C 13.598,8.12 11.446,8.987 8.896,8.987 2.965,8.987 0,5.992 0,0" />
          </g>
          <g
             transform="translate(478.3926,325.4602)"
             id="g78">
            <path
               id="path80"
               style="fill:#000000;fill-opacity:1;fill-rule:nonzero;stroke:none"
               d="m 0,0 c -5.931,0 -8.896,-2.995 -8.896,-8.987 0,-2.333 0.875,-4.414 2.63,-6.243 1.754,-1.831 3.842,-2.744 6.266,-2.744 2.549,0 4.701,0.867 6.456,2.602 1.753,1.734 2.631,3.862 2.631,6.385 0,2.523 -0.878,4.651 -2.631,6.386 C 4.701,-0.867 2.549,0 0,0" />
          </g>
          <g
             transform="translate(565.3369,270.9704)"
             id="g82">
            <path
               id="path84"
               style="fill:#000000;fill-opacity:1;fill-rule:nonzero;stroke:none"
               d="m 0,0 c -0.703,-0.694 -1.881,-1.135 -3.54,-1.323 -1.212,0 -2.391,0.439 -3.538,1.323 -0.83,0.631 -1.34,1.799 -1.531,3.501 0,1.386 0.445,2.615 1.338,3.688 0.959,0.695 2.202,1.135 3.731,1.326 1.467,0 2.598,-0.395 3.396,-1.182 C 0.652,6.543 1.147,5.267 1.339,3.501 1.339,2.113 0.892,0.946 0,0 m -3.54,28.098 c -6.95,0 -12.817,-2.398 -17.599,-7.191 -2.424,-2.397 -4.241,-5.012 -5.453,-7.851 -1.211,-2.838 -1.816,-6.025 -1.816,-9.555 l 0.573,-4.824 h -7.268 v 0.283 h -11 c -3.635,0 -5.453,1.639 -5.453,4.919 V 54.396 H -71.354 V -1.135 c 0,-5.297 1.992,-9.902 5.977,-13.811 3.984,-3.912 8.592,-5.866 13.821,-5.866 h 8.417 8.036 31.563 c 6.758,0 12.593,2.365 17.504,7.095 2.358,2.333 4.145,4.919 5.357,7.758 1.211,2.837 1.817,5.99 1.817,9.46 0,6.811 -2.375,12.612 -7.125,17.406 C 9.262,25.7 3.41,28.098 -3.54,28.098" />
          </g>
          <g
             transform="translate(713.8799,292.0681)"
             id="g86">
            <path
               id="path88"
               style="fill:#000000;fill-opacity:1;fill-rule:nonzero;stroke:none"
               d="m 0,0 c -2.425,2.331 -5.103,4.098 -8.035,5.296 -2.935,1.198 -6.154,1.797 -9.661,1.797 h -39.791 v -19.487 h 39.791 c 1.212,0 2.39,-0.472 3.54,-1.419 0.574,-0.441 0.938,-0.867 1.098,-1.276 0.161,-0.411 0.335,-1.152 0.527,-2.223 0,-1.325 -0.478,-2.461 -1.435,-3.407 -0.702,-0.757 -1.945,-1.229 -3.73,-1.419 h -39.502 -10.714 -1.677 c 0.286,1.547 0.436,3.154 0.436,4.826 0,6.557 -2.393,12.328 -7.174,17.312 -2.425,2.331 -5.104,4.098 -8.036,5.296 -2.934,1.198 -6.155,1.797 -9.66,1.797 h -19.61 v -19.487 h 19.61 c 1.21,0 2.39,-0.472 3.54,-1.419 0.573,-0.441 0.938,-0.867 1.098,-1.276 0.159,-0.411 0.335,-1.152 0.527,-2.223 0,-1.325 -0.478,-2.461 -1.436,-3.407 -0.701,-0.757 -1.944,-1.229 -3.729,-1.419 h -23.339 v -19.771 h 23.339 c 0.455,0 0.893,0.038 1.338,0.058 v -0.058 h 24.773 10.714 39.502 c 6.886,0 12.753,2.38 17.6,7.141 4.846,4.763 7.27,10.581 7.27,17.456 C 7.174,-10.755 4.781,-4.984 0,0" />
          </g>
          <g
             transform="translate(683.1748,307.2981)"
             id="g90">
            <path
               id="path92"
               style="fill:#000000;fill-opacity:1;fill-rule:nonzero;stroke:none"
               d="m 0,0 c 2.551,0 4.703,0.865 6.458,2.601 1.753,1.733 2.629,3.862 2.629,6.386 0,2.521 -0.876,4.649 -2.629,6.385 -1.755,1.733 -3.907,2.602 -6.458,2.602 -5.931,0 -8.895,-2.996 -8.895,-8.987 0,-2.335 0.875,-4.416 2.63,-6.245 C -4.512,0.914 -2.424,0 0,0" />
          </g>
          <g
             transform="translate(464.2363,299.2561)"
             id="g94">
            <path
               id="path96"
               style="fill:#000000;fill-opacity:1;fill-rule:nonzero;stroke:none"
               d="m 0,0 v -23.175 c 0,-4.164 -2.042,-6.245 -6.122,-6.245 h -6.694 v 0.094 h -20.183 v 19.394 c 0,3.468 -0.607,6.652 -1.817,9.555 -1.213,2.899 -2.998,5.549 -5.357,7.945 -5.039,4.73 -10.874,7.095 -17.504,7.095 -0.279,0 -0.544,-0.028 -0.818,-0.036 -3.071,-0.085 -5.935,-0.637 -8.579,-1.681 -3.029,-1.197 -5.782,-3.014 -8.251,-5.471 -3.23,-3.216 -5.35,-6.896 -6.413,-11.019 -0.522,-2.024 -0.809,-4.146 -0.809,-6.388 v -4.018 -16.557 l -0.095,-0.426 c -0.191,-1.768 -0.669,-2.997 -1.435,-3.691 -0.957,-0.945 -2.104,-1.418 -3.444,-1.418 -1.085,0.189 -1.833,0.362 -2.248,0.52 -0.415,0.156 -0.846,0.521 -1.29,1.088 -0.957,1.135 -1.435,2.301 -1.435,3.501 v 5.304 10.657 23.392 h -19.705 v -39.353 c 0,-1.137 0.09,-2.233 0.22,-3.308 0.267,-2.208 0.783,-4.298 1.597,-6.247 0.512,-1.226 1.15,-2.397 1.866,-3.533 0.98,-1.553 2.128,-3.03 3.491,-4.414 5.037,-4.731 10.872,-7.095 17.504,-7.095 6.951,0 12.832,2.398 17.647,7.19 4.815,4.793 7.223,10.594 7.223,17.407 v 20.547 l 0.095,0.454 c 0.191,1.764 0.669,2.995 1.434,3.688 0.958,0.948 2.105,1.42 3.445,1.42 1.083,-0.189 1.832,-0.364 2.247,-0.52 0.414,-0.158 0.845,-0.522 1.291,-1.089 0.957,-1.135 1.435,-2.303 1.435,-3.499 V -29.326 H -52.8 v -19.771 h 32.808 7.176 H 0 c 5.228,0 9.836,1.953 13.821,5.865 3.985,3.909 5.978,8.515 5.978,13.812 V 0 Z" />
          </g>
        </g>
      </g>
      <g
         id="g98"
         transform="matrix(0.35277777,0,0,-0.35277777,-9.009445,172.62505)">
        <g
           clip-path="url(#clipPath104)"
           id="g100">
          <g
             id="g106">
            <g
               id="g108">
              <path
                 id="path128"
                 style="fill:url(#linearGradient126);stroke:none"
                 d="m 165.281,365.161 c -0.912,-0.148 -1.433,-0.508 -1.865,-0.809 v 0 c -1.558,-1.26 -2.153,-2.418 -2.897,-3.592 v 0 c -0.685,-1.169 -1.272,-2.336 -1.823,-3.508 v 0 c -2.173,-4.685 -3.893,-9.425 -5.563,-14.19 v 0 c -3.243,-9.552 -6.074,-19.194 -8.824,-28.857 v 0 c 3.631,9.363 7.365,18.693 11.428,27.835 v 0 c 2.019,4.563 4.107,9.122 6.511,13.371 v 0 c 0.603,1.055 1.232,2.085 1.895,3.032 v 0 c 0.302,0.439 0.651,0.893 0.985,1.275 v 0 c 0.154,-0.802 0.243,-1.761 0.294,-2.71 v 0 c 0.182,-4.717 -0.159,-9.718 -0.546,-14.65 v 0 c -0.406,-4.951 -0.926,-9.918 -1.475,-14.888 v 0 c -1.082,-9.947 -2.402,-19.897 -3.385,-29.95 v 0 c -0.495,-5.033 -0.964,-10.071 -1.22,-15.256 v 0 c -0.111,-2.616 -0.211,-5.196 -0.004,-8.153 v 0 c 0.061,-0.753 0.141,-1.533 0.316,-2.448 v 0 c 0.095,-0.467 0.21,-0.971 0.413,-1.578 v 0 c 0.238,-0.618 0.439,-1.332 1.367,-2.499 v 0 c 0.452,-0.545 1.243,-1.306 2.441,-1.803 v 0 c 1.21,-0.559 3.071,-0.565 4.167,-0.143 v 0 c 1.148,0.39 1.807,0.913 2.234,1.272 v 0 c 0.469,0.401 0.732,0.706 0.981,0.997 v 0 c 0.894,1.106 1.243,1.803 1.648,2.511 v 0 c 1.417,2.68 2.339,4.886 3.406,7.168 v 0 c 1.033,2.251 2.072,4.444 3.161,6.597 v 0 c 2.189,4.297 4.516,8.451 7.134,12.379 v 0 c 1.307,1.963 2.677,3.874 4.121,5.715 v 0 c 1.523,1.946 3.054,3.897 4.575,5.722 v 0 c 1.524,1.824 3.064,3.578 4.613,5.09 v 0 c 1.244,1.228 2.55,2.305 3.622,2.972 v 0 c 0.08,-0.427 0.152,-0.892 0.214,-1.371 v 0 c 0.496,-4.098 0.395,-9.011 0.186,-13.824 v 0 c -0.435,-9.756 -1.471,-19.68 -1.94,-30.066 v 0 c -0.107,-2.62 -0.174,-5.267 -0.087,-8.121 v 0 c 0.051,-1.434 0.136,-2.911 0.375,-4.602 v 0 c 0.126,-0.855 0.283,-1.755 0.582,-2.834 v 0 c 0.356,-1.113 0.646,-2.304 1.943,-4.194 v 0 c 0.661,-0.91 1.664,-2.069 3.365,-3.011 v 0 c 1.68,-0.964 3.958,-1.337 5.613,-1.126 v 0 c 1.697,0.183 2.865,0.679 3.718,1.101 v 0 c 0.898,0.45 1.512,0.875 2.061,1.281 v 0 c 2.066,1.604 3.068,2.872 4.119,4.124 v 0 c 1.971,2.467 3.449,4.758 4.884,7.062 v 0 l 3.992,6.628 c 1.306,2.168 2.588,4.388 3.86,6.626 v 0 c 2.555,4.485 4.914,8.877 7.291,13.292 v 0 l 7.07,13.251 c 2.074,3.858 4.137,7.715 6.265,11.241 v 0 c 0.886,-1.88 1.689,-3.879 2.362,-5.947 v 0 c 1.441,-4.744 2.528,-9.699 4.038,-14.67 v 0 c 0.744,-2.49 1.552,-4.995 2.591,-7.516 v 0 c 1.076,-2.511 2.176,-5.108 4.539,-7.59 v 0 c 1.155,-1.206 2.998,-2.415 5.142,-2.588 v 0 c 2.148,-0.181 3.925,0.618 5.244,1.456 v 0 c 2.629,1.774 4.283,3.91 5.852,6.041 v 0 c 3.051,4.306 5.336,8.854 7.498,13.439 v 0 c 2.128,4.599 4.066,9.25 5.98,13.901 v 0 c 1.886,4.664 3.646,9.37 5.437,14.059 v 0 c -2.027,-4.592 -4.211,-9.116 -6.479,-13.586 v 0 c -2.25,-4.477 -4.636,-8.887 -7.26,-13.127 v 0 c -2.605,-4.232 -5.363,-8.415 -8.556,-11.979 v 0 c -1.572,-1.746 -3.348,-3.415 -5.063,-4.198 v 0 c -0.843,-0.386 -1.562,-0.463 -1.93,-0.312 v 0 c -0.368,0.137 -0.751,0.411 -1.237,1.083 v 0 c -0.96,1.316 -1.737,3.508 -2.291,5.709 v 0 c -0.554,2.238 -0.953,4.612 -1.296,7.016 v 0 c -0.651,4.832 -1.2,9.78 -1.652,14.89 v 0 l -0.466,7.967 c -0.23,2.8 -0.382,5.643 -1.757,9.229 v 0 c -0.796,1.773 -1.67,4.031 -4.945,6.39 v 0 c -0.842,0.557 -1.834,1.069 -2.95,1.424 v 0 c -0.964,0.325 -2.61,0.691 -4.535,0.463 v 0 c -1.814,-0.238 -3.173,-0.847 -4.095,-1.352 v 0 c -0.424,-0.239 -0.861,-0.507 -1.246,-0.769 v 0 c -0.292,-0.212 -0.582,-0.429 -0.862,-0.658 v 0 c -2.051,-1.736 -2.92,-2.96 -3.948,-4.255 v 0 c -0.92,-1.234 -1.735,-2.421 -2.504,-3.589 v 0 c -2.989,-4.64 -5.536,-9.12 -7.92,-13.688 v 0 c -2.344,-4.457 -4.689,-8.896 -6.948,-13.389 v 0 l -6.737,-13.343 -3.341,-6.411 c 0.227,8.069 0.701,16.379 0.797,24.853 v 0 c 0.018,5.207 0.044,10.373 -0.795,16.231 v 0 c -0.24,1.49 -0.53,3.025 -1.104,4.789 v 0 c -0.294,0.885 -0.655,1.832 -1.227,2.898 v 0 c -0.57,1.044 -1.391,2.308 -2.838,3.535 v 0 c -0.693,0.598 -1.85,1.257 -2.34,1.441 v 0 c -0.619,0.295 -1.296,0.521 -1.984,0.712 v 0 c -1.372,0.348 -2.838,0.49 -4.139,0.366 v 0 c -2.67,-0.213 -4.678,-1.119 -6.339,-2.016 v 0 c -3.248,-1.874 -5.367,-3.983 -7.357,-6.048 v 0 c -1.957,-2.081 -3.641,-4.18 -5.252,-6.27 v 0 c -1.608,-2.097 -3.093,-4.158 -4.582,-6.223 v 0 c -1.566,-2.174 -3.034,-4.405 -4.417,-6.675 v 0 c -2.456,-4.035 -4.627,-8.204 -6.545,-12.435 v 0 c 0.067,2.02 0.141,4.044 0.231,6.073 v 0 l 1.422,30.063 c 0.209,5.034 0.391,10.078 0.46,15.151 v 0 c 0.032,5.085 0.098,10.142 -0.555,15.432 v 0 c -0.191,1.342 -0.386,2.669 -0.904,4.195 v 0 c -0.313,0.758 -0.519,1.621 -1.71,2.704 v 0 c -0.486,0.452 -1.416,0.811 -2.231,0.811 v 0 c -0.165,0 -0.325,-0.015 -0.477,-0.046 m 0.777,-4.578 c 0.063,0.041 0.098,0.022 -0.028,-0.021 v 0 c 0.008,0.005 0.02,0.017 0.028,0.021 m 38.396,-43.867 c -0.023,10e-4 -0.082,-0.007 -0.15,-0.011 v 0 c 0.16,0.044 0.231,0.044 0.15,0.011 M 169.492,273.85 c 0.061,-0.131 0.058,-0.178 0.072,-0.194 v 0 c -0.001,-0.001 -0.001,-0.001 -0.001,-0.001 v 0 c -0.006,0 -0.039,0.084 -0.071,0.195 m 48.268,-14.101 c -0.01,0.024 -0.025,0.086 -0.037,0.125 v 0 c 0.05,-0.113 0.053,-0.152 0.047,-0.152 v 0 c -0.003,0 -0.008,0.011 -0.01,0.027" />
            </g>
          </g>
        </g>
      </g>
      <g
         id="g130"
         transform="matrix(0.35277777,0,0,-0.35277777,-9.009445,172.62505)">
        <g
           clip-path="url(#clipPath136)"
           id="g132">
          <g
             id="g138">
            <g
               id="g140">
              <path
                 id="path160"
                 style="fill:url(#linearGradient158);stroke:none"
                 d="m 402.853,325.062 c -15.261,-7.771 -30.254,-16.102 -44.875,-25.064 v 0 C 348.78,294.385 339.809,288.4 331.004,282.184 v 0 c 3.329,7.988 6.352,16.114 9.029,24.393 v 0 c 2.617,8.305 4.885,16.693 6.777,25.212 v 0 c 0.938,4.27 1.793,8.548 2.446,12.994 v 0 c 0.162,1.115 0.308,2.244 0.425,3.42 v 0 c 0.11,1.205 0.226,2.334 0.182,3.955 v 0 c -0.023,0.438 -0.04,0.889 -0.177,1.634 v 0 c -0.108,0.436 -0.131,0.812 -0.619,1.829 v 0 c -0.189,0.38 -0.676,1.258 -1.697,2.046 v 0 c -0.972,1.046 -3.897,1.437 -4.952,0.974 v 0 c -1.264,-0.37 -1.698,-0.766 -2.073,-1.017 v 0 c -0.403,-0.305 -0.551,-0.463 -0.762,-0.667 v 0 c -0.331,-0.337 -0.543,-0.602 -0.708,-0.815 v 0 c -0.334,-0.436 -0.557,-0.777 -0.754,-1.088 v 0 c -0.767,-1.232 -1.276,-2.232 -1.806,-3.266 v 0 c -3.956,-8.044 -7.188,-15.811 -10.676,-23.643 v 0 c -2.682,-6.06 -5.368,-12.087 -8.141,-18.025 v 0 l 0.932,4.033 c 0.965,4.192 1.912,8.419 2.74,12.74 v 0 c 0.803,4.352 1.583,8.682 1.746,13.627 v 0 c 0.027,1.251 0.008,2.555 -0.171,4.033 v 0 c -0.245,1.488 -0.4,3.155 -1.897,5.506 v 0 c -0.763,1.154 -2.196,2.502 -3.978,3.111 v 0 c -1.764,0.63 -3.385,0.526 -4.531,0.306 v 0 c -0.607,-0.112 -1.103,-0.265 -1.577,-0.427 v 0 c -0.439,-0.159 -0.742,-0.304 -1.118,-0.463 v 0 c -0.742,-0.302 -1.347,-0.675 -2.003,-1.033 v 0 c -4.908,-3.025 -7.752,-6.931 -10.276,-10.803 v 0 c -2.445,-3.917 -4.312,-7.997 -5.891,-12.134 v 0 c -1.585,-4.133 -2.942,-8.294 -4.172,-12.467 v 0 c -2.425,-8.116 -4.772,-16.108 -7.339,-24.031 v 0 c 2.596,7.91 6.129,15.525 10.498,22.618 v 0 c 4.475,7.258 9.63,14.132 14.875,20.096 v 0 c 2.059,2.295 4.264,4.472 6.313,5.975 v 0 c 0,-0.009 10e-4,-0.016 10e-4,-0.024 v 0 c -0.107,-3.606 -0.79,-7.733 -1.553,-11.774 v 0 c -0.781,-4.072 -1.702,-8.186 -2.656,-12.322 v 0 l -2.898,-12.527 c -0.923,-4.285 -1.905,-8.406 -2.394,-13.371 v 0 c -0.052,-0.642 -0.094,-1.306 -0.095,-2.057 v 0 c 0.009,-0.767 0.013,-1.553 0.243,-2.737 v 0 c 0.135,-0.604 0.292,-1.31 0.836,-2.335 v 0 c 0.258,-0.481 0.696,-1.129 1.323,-1.722 v 0 c 0.663,-0.624 1.585,-1.202 2.578,-1.488 v 0 c 1.845,-0.541 3.336,-0.204 4.296,0.13 v 0 c 0.985,0.359 1.596,0.758 2.09,1.105 v 0 c 1.86,1.405 2.581,2.466 3.43,3.529 v 0 c 0.786,1.051 1.451,2.058 2.075,3.057 v 0 c 2.458,3.981 4.416,7.874 6.349,11.802 v 0 c 1.591,3.276 3.114,6.556 4.61,9.837 v 0 c -0.016,-0.052 -0.03,-0.104 -0.047,-0.156 v 0 c -4.096,-13.391 -9.175,-26.573 -15.019,-39.393 v 0 C 301.396,260.17 288.387,249.437 275.809,238.248 v 0 c -6.483,-5.611 -12.733,-11.464 -19.102,-17.197 v 0 c -6.404,-5.932 -12.223,-12.242 -17.961,-18.685 v 0 c -5.697,-6.471 -11.205,-13.12 -16.281,-20.207 v 0 c -2.526,-3.556 -4.955,-7.207 -7.088,-11.174 v 0 c -1.058,-1.991 -2.049,-4.056 -2.837,-6.342 v 0 c -0.708,-2.307 -1.528,-4.797 -0.819,-8.199 v 0 c 0.342,-1.679 1.54,-3.557 3.096,-4.612 v 0 c 1.532,-1.086 3.147,-1.496 4.641,-1.666 v 0 c 2.998,-0.283 5.51,0.348 7.805,1.093 v 0 c 4.567,1.574 8.48,3.853 12.211,6.301 v 0 c 7.418,4.948 14.023,10.707 20.294,16.753 v 0 c 12.48,12.158 23.499,25.608 33.52,39.729 v 0 c 10.012,14.132 18.947,29.017 26.793,44.471 v 0 c 2.773,5.486 5.405,11.039 7.897,16.657 v 0 c 23.991,17.853 49.798,33.185 76.342,47.049 v 0 c 30.31,15.684 61.615,29.465 93.69,41.371 v 0 l -3.043,6.908 c -30.454,-15.73 -61.571,-29.931 -92.114,-45.436 M 220.175,157.169 c -0.617,0.042 -1.142,0.213 -1.357,0.377 v 0 c -0.2,0.163 -0.276,0.168 -0.394,0.582 v 0 c -0.261,0.81 -0.012,2.662 0.559,4.382 v 0 c 0.568,1.77 1.384,3.592 2.298,5.389 v 0 c 1.844,3.602 4.083,7.133 6.438,10.587 v 0 c 4.745,6.908 10.022,13.548 15.495,20.012 v 0 c 5.499,6.427 11.17,12.81 17.198,18.613 v 0 c 6.219,5.829 12.324,11.794 18.698,17.45 v 0 c 10.25,9.393 20.795,18.445 31.613,27.155 v 0 c -7.23,-14.747 -15.472,-29.021 -24.736,-42.599 v 0 c -9.504,-13.924 -20.042,-27.191 -31.822,-39.136 v 0 c -5.899,-5.935 -12.136,-11.574 -18.854,-16.256 v 0 c -3.347,-2.315 -6.873,-4.401 -10.375,-5.681 v 0 c -1.517,-0.556 -3.066,-0.895 -4.281,-0.895 v 0 c -0.167,0 -0.327,0.007 -0.48,0.02 m 59.585,134.326 c 0.068,0.207 0.136,0.415 0.203,0.623 v 0 c -0.068,-0.208 -0.136,-0.415 -0.203,-0.623" />
            </g>
          </g>
        </g>
      </g>
      <g
         id="g162"
         transform="matrix(0.35277777,0,0,-0.35277777,-9.009445,172.62505)">
        <g
           clip-path="url(#clipPath168)"
           id="g164">
          <g
             id="g170">
            <g
               id="g172">
              <path
                 id="path192"
                 style="fill:url(#linearGradient190);stroke:none"
                 d="m 499.698,394.338 c -0.423,-0.506 -0.772,-1.068 -1.188,-1.58 v 0 c -0.212,-0.263 -0.381,-0.553 -0.582,-0.822 v 0 c -0.062,-0.114 -0.137,-0.218 -0.212,-0.322 v 0 c -0.021,-0.031 -0.041,-0.062 -0.059,-0.095 v 0 c -0.09,-0.145 -0.189,-0.286 -0.276,-0.434 v 0 c -0.255,-0.31 -0.28,-0.614 0.019,-0.916 v 0 c 0.065,-0.065 0.102,-0.155 0.156,-0.23 v 0 c 0.693,-0.831 1.209,-1.78 1.768,-2.7 v 0 c 0.297,-0.468 0.541,-0.968 0.789,-1.464 v 0 c 0.259,-0.546 0.48,-1.111 0.723,-1.663 v 0 c 0.244,-0.55 0.488,-1.112 0.584,-1.717 v 0 c 0.087,-0.414 0.259,-0.8 0.404,-1.194 v 0 c 0.018,-0.045 0.034,-0.09 0.052,-0.135 v 0 c 0.186,-0.565 0.452,-1.102 0.578,-1.689 v 0 c -0.015,-0.041 -0.036,-0.077 -0.061,-0.113 v 0 c -0.945,-0.407 -1.916,-0.744 -2.894,-1.067 v 0 c -0.06,0.003 -0.12,0.01 -0.181,0.019 v 0 c -0.164,0.027 -0.31,0.1 -0.457,0.172 v 0 c -0.083,0.039 -0.165,0.079 -0.246,0.119 v 0 c -0.364,0.176 -0.736,0.336 -1.125,0.532 v 0 c 0.39,0.167 0.423,0.494 0.476,0.809 v 0 c -0.057,0.145 -0.192,0.178 -0.321,0.22 v 0 c -0.652,0.218 -1.309,0.428 -1.963,0.646 v 0 c -0.501,0.134 -0.988,0.316 -1.477,0.489 v 0 c -0.303,0.133 -0.635,0.192 -0.922,0.362 v 0 c -0.365,0.138 -0.731,0.272 -1.096,0.411 v 0 c -0.434,0.17 -0.883,0.296 -1.326,0.444 v 0 c -0.21,0.051 -0.414,0.129 -0.629,0.157 v 0 c -0.649,0.114 -1.096,-0.244 -1.525,-0.649 v 0 c -0.161,-0.204 -0.371,-0.36 -0.534,-0.562 v 0 c -0.189,-0.37 -0.558,-0.634 -0.628,-1.074 v 0 c -0.136,-0.294 -0.028,-0.573 0.05,-0.855 v 0 c 0.244,-0.497 0.509,-0.984 0.854,-1.422 v 0 c 0.034,-0.073 0.068,-0.145 0.103,-0.218 v 0 c 0.143,-0.493 0.476,-0.888 0.697,-1.341 v 0 c 0.196,-0.366 0.413,-0.72 0.611,-1.085 v 0 c 0.402,-0.612 0.815,-1.214 1.527,-1.512 v 0 c 0.079,-0.023 0.158,-0.04 0.237,-0.058 v 0 c 0.619,-0.162 1.253,-0.162 1.886,-0.162 v 0 c 0.265,0.009 0.531,-0.011 0.796,-0.016 v 0 c 0.266,-0.004 0.43,-0.106 0.455,-0.385 v 0 c 0.003,-0.011 0.008,-0.022 0.011,-0.032 v 0 c 1.159,-3.15 1.619,-4.714 2.916,-8.261 v 0 c 0.088,-0.237 0.011,-0.513 -0.201,-0.649 v 0 c -0.727,-0.467 -2.308,-1.501 -2.33,-2.054 v 0 c -0.006,-0.105 -0.044,-0.456 0.063,-0.865 v 0 c 0.135,-0.521 0.055,-1.083 0.309,-1.58 v 0 c 0.024,-0.105 0.049,-0.209 0.069,-0.315 v 0 c 0.214,-1.168 0.219,-2.372 0.63,-3.504 v 0 l 0.269,-0.221 c 0.361,-0.289 0.806,-0.339 1.235,-0.43 v 0 c 0.214,-0.047 0.423,-0.105 0.639,-0.139 v 0 c 0.589,-0.116 1.145,-0.082 1.62,0.344 v 0 c 0.211,0.26 0.414,0.525 0.56,0.829 v 0 c 0.148,0.361 0.364,0.684 0.576,1.009 v 0 c 0.243,0.423 0.499,0.838 0.756,1.253 v 0 c 0.023,0.03 0.043,0.06 0.063,0.093 v 0 c 0.085,0.163 0.198,0.309 0.296,0.465 v 0 c 0.046,0.083 0.093,0.166 0.143,0.246 v 0 c 0.582,0.917 1.142,1.846 1.706,2.774 v 0 c 0.125,0.207 0.334,0.428 0.075,0.687 v 0 c -0.254,0.161 -0.536,0.122 -0.821,0.086 v 0 c 0.228,0.367 0.363,0.747 0.545,1.105 v 0 c 0.082,0.189 0.174,0.373 0.256,0.561 v 0 c 0.037,0.112 0.08,0.219 0.173,0.298 v 0 c 0.873,0.362 1.772,0.656 2.657,0.988 v 0 c 0.079,0.028 0.158,0.038 0.239,0.014 v 0 c 0.095,-0.032 0.123,-0.116 0.149,-0.2 v 0 c 0.176,-0.484 0.346,-0.972 0.533,-1.452 v 0 c 0.177,-0.529 0.374,-1.052 0.573,-1.573 v 0 c 0.052,-0.167 0.112,-0.333 0.18,-0.495 v 0 c 0.128,-0.322 0.243,-0.65 0.359,-0.978 v 0 c 0.189,-0.752 0.47,-1.475 0.682,-2.22 v 0 c 0.038,-0.293 0.188,-0.557 0.217,-0.852 v 0 c 0.006,-0.043 0.015,-0.086 0.027,-0.128 v 0 c 0.041,-0.139 0.099,-0.276 0.067,-0.425 v 0 c -0.008,-0.302 0.069,-0.59 0.139,-0.879 v 0 c 0.047,-0.134 0.101,-0.267 0.102,-0.413 v 0 c 0.018,-0.14 0.039,-0.281 0.047,-0.422 v 0 c 0.046,-0.423 0.046,-0.848 0.051,-1.272 v 0 c -0.028,-0.545 0.329,-0.756 0.773,-0.891 v 0 c 0.223,-0.054 0.45,-0.082 0.674,-0.134 v 0 c 0.404,-0.086 0.798,-0.205 1.188,-0.34 v 0 c 0.595,-0.181 1.205,-0.291 1.816,-0.392 v 0 c 0.041,-0.005 0.083,-0.006 0.124,-0.002 v 0 c 0.545,-0.014 1.036,0.147 1.48,0.462 v 0 c 0.064,0.054 0.118,0.116 0.162,0.188 v 0 c 0.306,0.624 0.586,1.26 0.884,1.887 v 0 c 0.038,0.085 0.079,0.168 0.118,0.253 v 0 c 0.287,0.61 0.568,1.223 0.855,1.832 v 0 c 0.038,0.086 0.079,0.17 0.118,0.254 v 0 c 0.286,0.611 0.567,1.224 0.854,1.834 v 0 c 0.039,0.086 0.079,0.17 0.119,0.253 v 0 c 0.286,0.611 0.567,1.225 0.854,1.835 v 0 c 0.038,0.085 0.078,0.169 0.118,0.253 v 0 c 0.286,0.611 0.568,1.224 0.855,1.835 v 0 c 0.038,0.086 0.079,0.17 0.119,0.254 v 0 c 0.338,0.608 0.506,1.291 0.843,1.899 v 0 c 0.028,0.049 0.053,0.1 0.072,0.155 v 0 c 0.296,0.655 0.582,1.316 0.897,1.961 v 0 c 0.028,0.053 0.054,0.106 0.079,0.159 v 0 c 0.183,0.627 0.582,1.016 1.238,1.117 v 0 c 0.419,0.157 0.852,0.278 1.25,0.488 v 0 c 0.023,0.015 0.045,0.031 0.066,0.046 v 0 c 0.204,0.139 0.523,0.224 0.407,0.558 v 0 c -0.118,0.341 -0.425,0.184 -0.667,0.176 v 0 c -0.334,-0.046 -0.632,-0.206 -0.951,-0.296 v 0 c -0.092,-0.027 -0.195,-0.17 -0.306,-0.02 v 0 c 0.262,0.661 0.504,1.332 0.842,1.962 v 0 c 0.028,0.054 0.058,0.108 0.081,0.164 v 0 c 0.133,0.371 0.374,0.619 0.742,0.797 v 0 c 0.486,0.235 0.997,0.398 1.498,0.588 v 0 c 0.105,0.041 0.209,0.089 0.304,0.152 v 0 c 0.551,0.273 1.123,0.504 1.654,0.819 v 0 c 0.447,0.231 0.844,0.537 1.246,0.835 v 0 c 0.311,0.268 0.647,0.511 0.905,0.837 v 0 c 0.186,0.201 0.346,0.429 0.577,0.586 v 0 c 1.03,0.433 2.089,0.788 3.134,1.184 v 0 c 0.618,0.322 1.265,0.582 1.881,0.907 v 0 c 0.036,0.039 0.059,0.084 0.067,0.136 v 0 c -0.144,0.707 -0.439,1.363 -0.673,2.039 v 0 c -0.152,0.438 -0.158,0.44 0.287,0.601 v 0 c 2.632,0.959 5.266,1.921 7.899,2.878 v 0 c 0.544,0.197 1.403,0.584 1.912,0.861 v 0 c 0.375,0.206 0.751,0.412 1.134,0.605 v 0 c 0.45,0.259 0.905,0.51 1.35,0.778 v 0 c 0.17,0.111 0.346,0.209 0.513,0.321 v 0 c 0.309,0.209 0.672,0.35 0.859,0.707 v 0 c 0.817,0.701 1.635,1.401 2.476,2.121 v 0 c -0.265,0.139 -0.496,0.143 -0.723,0.174 v 0 c -0.336,0.046 -0.671,0.015 -1.006,-0.016 v 0 c -0.24,-0.022 -0.481,-0.044 -0.722,-0.037 v 0 c -0.275,0.125 -0.551,0 -0.828,0 v 0 c -0.65,-0.062 -1.298,-0.134 -1.945,-0.218 v 0 c -0.467,-0.071 -0.932,-0.152 -1.396,-0.231 v 0 c -0.693,-0.13 -1.362,-0.349 -2.048,-0.5 v 0 c -0.121,-0.02 -0.241,-0.047 -0.355,-0.097 v 0 c -0.954,-0.307 -1.929,-0.56 -2.855,-0.955 v 0 c -0.114,-0.048 -0.234,-0.06 -0.354,-0.072 v 0 c -0.226,-0.037 -0.437,-0.12 -0.649,-0.204 v 0 c -0.501,-0.17 -0.999,-0.351 -1.492,-0.545 v 0 c -0.119,-0.043 -0.237,-0.09 -0.343,-0.162 v 0 c -0.108,-0.084 -0.232,-0.136 -0.359,-0.183 v 0 c -0.887,-0.323 -1.779,-0.638 -2.662,-0.974 v 0 c -0.312,-0.119 -0.481,-0.054 -0.575,0.268 v 0 c -0.08,0.272 -0.182,0.538 -0.29,0.799 v 0 c -0.169,0.41 -0.245,0.859 -0.51,1.229 v 0 c -0.288,0.143 -0.571,-0.004 -0.856,-0.014 v 0 c -0.566,-0.082 -1.098,-0.296 -1.647,-0.443 v 0 c -0.517,-0.219 -1.025,-0.461 -1.588,-0.543 v 0 c -0.51,-0.187 -1.037,-0.306 -1.579,-0.357 v 0 c -0.336,-0.05 -0.674,-0.059 -1.013,-0.059 v 0 c -0.256,0.027 -0.507,-0.027 -0.759,-0.051 v 0 c -0.495,-0.071 -0.989,-0.145 -1.486,-0.19 v 0 c -0.534,-0.115 -1.091,-0.099 -1.609,-0.295 v 0 c -0.504,-0.117 -0.994,-0.286 -1.497,-0.409 v 0 c -0.573,-0.262 -1.129,-0.263 -1.664,0.103 v 0 c -0.053,0.025 -0.106,0.05 -0.161,0.071 v 0 c -0.643,0.279 -1.269,0.593 -1.874,0.952 v 0 c -0.022,0.191 0.153,0.147 0.243,0.188 v 0 c 0.346,0.153 0.723,0.234 1.052,0.432 v 0 c 0.184,0.127 0.354,0.274 0.26,0.526 v 0 c -0.093,0.247 -0.32,0.194 -0.519,0.185 v 0 c -0.04,-0.002 -0.081,-0.005 -0.12,-0.008 v 0 c -0.113,-0.015 -0.222,-0.044 -0.329,-0.081 v 0 c -0.327,-0.125 -0.672,-0.214 -0.984,-0.37 v 0 c -0.569,-0.283 -1.107,-0.281 -1.641,0.072 v 0 c -0.094,0.04 -0.186,0.08 -0.279,0.121 v 0 c -0.623,0.284 -1.242,0.575 -1.862,0.863 v 0 c -0.086,0.039 -0.171,0.08 -0.255,0.119 v 0 c -0.612,0.287 -1.225,0.568 -1.835,0.855 v 0 c -0.085,0.038 -0.169,0.078 -0.254,0.118 v 0 c -0.61,0.286 -1.224,0.568 -1.834,0.854 v 0 c -0.084,0.039 -0.169,0.078 -0.253,0.119 v 0 c -0.61,0.286 -1.224,0.568 -1.834,0.854 v 0 c -0.085,0.038 -0.17,0.078 -0.254,0.118 v 0 c -0.61,0.287 -1.224,0.568 -1.834,0.855 v 0 c -0.084,0.038 -0.168,0.078 -0.254,0.118 v 0 c -0.61,0.287 -1.222,0.568 -1.832,0.855 v 0 c -0.087,0.038 -0.17,0.077 -0.255,0.118 v 0 c -0.634,0.283 -1.251,0.608 -1.898,0.862 v 0 c -0.079,0.016 -0.159,0.027 -0.24,0.029 v 0 c -0.031,10e-4 -0.061,10e-4 -0.091,10e-4 v 0 c -0.564,0 -1.056,-0.17 -1.423,-0.639" />
            </g>
          </g>
        </g>
      </g>
      <g
         id="g194"
         transform="matrix(0.35277777,0,0,-0.35277777,-9.009445,172.62505)">
        <g
           clip-path="url(#clipPath200)"
           id="g196">
          <g
             transform="translate(497.6885,364.9455)"
             id="g202">
            <path
               id="path204"
               style="fill:none;stroke:#f4f4f4;stroke-width:1.462;stroke-linecap:butt;stroke-linejoin:miter;stroke-miterlimit:10;stroke-dasharray:none;stroke-opacity:1"
               d="m 0,0 c 0.087,-0.237 0.011,-0.513 -0.202,-0.65 -0.726,-0.466 -2.308,-1.5 -2.33,-2.054 -0.005,-0.104 -0.043,-0.455 0.063,-0.865 0.135,-0.52 0.055,-1.082 0.31,-1.579 0.023,-0.105 0.049,-0.21 0.068,-0.315 0.214,-1.168 0.22,-2.372 0.63,-3.505 l 0.27,-0.221 c 0.361,-0.289 0.805,-0.339 1.235,-0.429 0.213,-0.048 0.423,-0.106 0.639,-0.14 0.588,-0.116 1.145,-0.081 1.619,0.345 0.212,0.26 0.415,0.524 0.56,0.829 0.149,0.361 0.365,0.684 0.576,1.009 0.244,0.423 0.5,0.838 0.756,1.253 0.023,0.03 0.044,0.06 0.064,0.092 0.085,0.164 0.198,0.31 0.296,0.465 0.046,0.083 0.092,0.166 0.143,0.246 0.581,0.917 1.142,1.847 1.705,2.774 0.125,0.207 0.334,0.428 0.076,0.687 -0.254,0.162 -0.537,0.122 -0.822,0.087 0.229,0.366 0.364,0.747 0.546,1.104 0.081,0.189 0.173,0.373 0.255,0.562 0.037,0.111 0.08,0.219 0.173,0.298 0.873,0.361 1.772,0.656 2.658,0.987 0.078,0.029 0.157,0.039 0.238,0.014 0.096,-0.032 0.123,-0.116 0.15,-0.2 0.176,-0.484 0.345,-0.971 0.533,-1.452 0.177,-0.529 0.373,-1.051 0.573,-1.572 0.052,-0.167 0.112,-0.333 0.18,-0.495 0.128,-0.323 0.243,-0.65 0.359,-0.978 0.189,-0.752 0.47,-1.476 0.681,-2.221 0.039,-0.292 0.188,-0.556 0.217,-0.851 0.007,-0.043 0.015,-0.086 0.028,-0.128 0.04,-0.139 0.098,-0.276 0.066,-0.426 -0.007,-0.301 0.07,-0.589 0.139,-0.878 0.048,-0.134 0.102,-0.268 0.103,-0.414 0.018,-0.14 0.039,-0.28 0.047,-0.421 0.045,-0.423 0.045,-0.848 0.051,-1.273 -0.029,-0.545 0.328,-0.755 0.772,-0.891 0.223,-0.053 0.451,-0.082 0.675,-0.133 0.403,-0.086 0.797,-0.205 1.187,-0.34 0.595,-0.181 1.205,-0.291 1.817,-0.393 0.041,-0.004 0.083,-0.005 0.124,-0.001 0.544,-0.014 1.036,0.146 1.479,0.461 0.064,0.054 0.118,0.116 0.162,0.188 0.306,0.624 0.586,1.26 0.885,1.887 0.038,0.085 0.078,0.169 0.118,0.253 0.287,0.611 0.567,1.223 0.855,1.833 0.038,0.086 0.078,0.17 0.118,0.254 0.286,0.611 0.567,1.223 0.854,1.834 0.038,0.085 0.078,0.169 0.118,0.253 0.287,0.611 0.568,1.224 0.855,1.835 0.038,0.085 0.078,0.169 0.118,0.253 0.286,0.611 0.567,1.224 0.855,1.835 0.038,0.085 0.079,0.169 0.119,0.253 0.338,0.608 0.506,1.291 0.842,1.9 0.029,0.049 0.054,0.1 0.073,0.155 0.296,0.655 0.581,1.315 0.897,1.961 0.028,0.052 0.054,0.106 0.078,0.159 0.184,0.627 0.582,1.016 1.239,1.117 0.419,0.157 0.851,0.277 1.25,0.487 0.022,0.016 0.044,0.031 0.066,0.046 0.204,0.139 0.522,0.225 0.406,0.559 C 28.497,5.791 28.19,5.634 27.948,5.625 27.614,5.579 27.316,5.42 26.998,5.33 26.905,5.303 26.803,5.16 26.692,5.31 c 0.262,0.66 0.503,1.332 0.841,1.962 0.029,0.054 0.058,0.107 0.081,0.164 0.134,0.371 0.375,0.619 0.742,0.796 0.487,0.235 0.998,0.398 1.498,0.589 0.106,0.041 0.209,0.088 0.305,0.151 0.551,0.274 1.123,0.504 1.653,0.82 0.448,0.23 0.844,0.537 1.247,0.834 0.311,0.269 0.647,0.511 0.905,0.837 0.185,0.202 0.346,0.43 0.577,0.586 1.029,0.434 2.089,0.788 3.134,1.184 0.617,0.323 1.264,0.583 1.881,0.908 0.036,0.038 0.058,0.084 0.066,0.136 -0.143,0.706 -0.438,1.362 -0.673,2.038 -0.151,0.439 -0.157,0.44 0.287,0.602 2.633,0.959 5.266,1.92 7.9,2.877 0.544,0.198 1.403,0.585 1.911,0.862 0.376,0.206 0.752,0.411 1.135,0.605 0.45,0.259 0.905,0.51 1.35,0.778 0.169,0.111 0.346,0.209 0.513,0.321 0.309,0.208 0.672,0.35 0.858,0.707 0.818,0.701 1.636,1.401 2.477,2.12 -0.265,0.14 -0.496,0.144 -0.723,0.175 -0.579,0.079 -1.151,-0.07 -1.728,-0.054 -0.276,0.126 -0.552,0.001 -0.828,0 -0.65,-0.061 -1.298,-0.133 -1.946,-0.218 -0.467,-0.071 -0.931,-0.152 -1.396,-0.23 -0.692,-0.131 -1.362,-0.35 -2.047,-0.501 -0.121,-0.019 -0.241,-0.046 -0.355,-0.097 -0.955,-0.307 -1.929,-0.559 -2.856,-0.954 -0.113,-0.049 -0.233,-0.06 -0.354,-0.073 -0.225,-0.036 -0.437,-0.12 -0.648,-0.203 -0.502,-0.17 -0.999,-0.351 -1.492,-0.545 -0.119,-0.044 -0.237,-0.091 -0.343,-0.162 -0.108,-0.084 -0.232,-0.137 -0.359,-0.183 -0.888,-0.323 -1.78,-0.638 -2.662,-0.975 -0.312,-0.119 -0.481,-0.054 -0.576,0.269 -0.08,0.271 -0.181,0.537 -0.29,0.799 -0.169,0.41 -0.245,0.858 -0.509,1.228 -0.288,0.144 -0.572,-0.004 -0.857,-0.014 -0.566,-0.082 -1.098,-0.295 -1.646,-0.442 -0.517,-0.219 -1.025,-0.461 -1.588,-0.544 -0.511,-0.186 -1.037,-0.305 -1.579,-0.356 -0.336,-0.051 -0.674,-0.06 -1.013,-0.06 -0.256,0.027 -0.507,-0.026 -0.759,-0.05 -0.495,-0.071 -0.989,-0.146 -1.487,-0.191 -0.533,-0.114 -1.091,-0.098 -1.609,-0.294 -0.503,-0.117 -0.994,-0.286 -1.497,-0.409 -0.572,-0.262 -1.129,-0.264 -1.663,0.103 -0.053,0.024 -0.106,0.049 -0.161,0.071 -0.643,0.279 -1.269,0.593 -1.875,0.951 -0.021,0.191 0.153,0.148 0.243,0.188 0.347,0.153 0.724,0.234 1.052,0.432 0.185,0.127 0.355,0.275 0.261,0.527 -0.093,0.246 -0.32,0.193 -0.52,0.185 -0.04,-0.002 -0.08,-0.005 -0.12,-0.009 -0.112,-0.014 -0.221,-0.043 -0.328,-0.081 -0.328,-0.125 -0.673,-0.214 -0.984,-0.369 -0.57,-0.283 -1.108,-0.282 -1.641,0.071 -0.094,0.041 -0.186,0.08 -0.279,0.122 -0.623,0.283 -1.242,0.575 -1.863,0.863 -0.085,0.038 -0.17,0.079 -0.254,0.119 -0.612,0.286 -1.225,0.568 -1.835,0.854 -0.085,0.038 -0.169,0.078 -0.254,0.119 -0.611,0.286 -1.224,0.567 -1.834,0.854 -0.085,0.038 -0.169,0.078 -0.253,0.119 -0.611,0.286 -1.224,0.567 -1.834,0.854 -0.086,0.038 -0.17,0.078 -0.254,0.118 -0.61,0.286 -1.224,0.568 -1.834,0.854 -0.085,0.038 -0.169,0.078 -0.254,0.119 -0.61,0.286 -1.223,0.567 -1.833,0.854 C 5.83,29.059 5.746,29.099 5.662,29.139 5.027,29.423 4.411,29.748 3.764,30.001 3.685,30.018 3.604,30.028 3.523,30.03 2.922,30.049 2.396,29.887 2.01,29.393 1.587,28.886 1.237,28.325 0.821,27.813 0.61,27.55 0.44,27.259 0.239,26.99 0.178,26.876 0.103,26.772 0.027,26.668 c -0.02,-0.03 -0.041,-0.062 -0.058,-0.095 -0.091,-0.145 -0.19,-0.285 -0.276,-0.433 -0.255,-0.311 -0.281,-0.615 0.019,-0.917 0.064,-0.065 0.101,-0.154 0.155,-0.23 0.694,-0.831 1.209,-1.78 1.768,-2.699 C 1.933,21.825 2.176,21.325 2.425,20.83 2.684,20.283 2.904,19.719 3.148,19.166 3.392,18.617 3.636,18.055 3.731,17.449 3.818,17.035 3.99,16.65 4.136,16.255 4.153,16.21 4.17,16.166 4.187,16.121 4.374,15.556 4.64,15.018 4.766,14.432 4.751,14.391 4.729,14.354 4.704,14.319 3.76,13.912 2.788,13.575 1.811,13.251 1.75,13.254 1.69,13.262 1.63,13.271 c -0.164,0.027 -0.311,0.1 -0.457,0.171 -0.083,0.039 -0.165,0.079 -0.246,0.12 -0.365,0.176 -0.737,0.336 -1.125,0.531 0.389,0.167 0.423,0.494 0.476,0.809 -0.057,0.146 -0.193,0.178 -0.321,0.221 -0.653,0.217 -1.309,0.427 -1.963,0.645 -0.502,0.135 -0.988,0.316 -1.477,0.489 -0.303,0.134 -0.635,0.193 -0.922,0.362 -0.366,0.138 -0.732,0.273 -1.096,0.412 -0.435,0.17 -0.884,0.296 -1.326,0.444 -0.21,0.05 -0.414,0.129 -0.63,0.157 -0.648,0.114 -1.096,-0.245 -1.524,-0.65 -0.162,-0.203 -0.372,-0.36 -0.535,-0.562 -0.188,-0.37 -0.558,-0.634 -0.628,-1.073 -0.136,-0.294 -0.028,-0.574 0.05,-0.855 0.244,-0.498 0.51,-0.985 0.855,-1.423 0.034,-0.072 0.068,-0.145 0.103,-0.217 0.143,-0.494 0.475,-0.889 0.697,-1.341 0.196,-0.366 0.413,-0.72 0.611,-1.085 0.402,-0.613 0.814,-1.214 1.527,-1.512 0.078,-0.023 0.157,-0.041 0.237,-0.059 0.619,-0.162 1.252,-0.162 1.885,-0.162 0.266,0.01 0.532,-0.011 0.796,-0.015 C -3.117,8.673 -2.952,8.571 -2.928,8.293 -2.924,8.282 -2.92,8.271 -2.916,8.26 -1.757,5.11 -1.297,3.547 0,0 Z" />
          </g>
        </g>
      </g>
    </g>
  </g>
</svg>
